<?xml version="1.0" encoding="utf-8"?><svg viewBox="0 0 96 65" xmlns="http://www.w3.org/2000/svg" xmlns:xlink="http://www.w3.org/1999/xlink"><style>:root>svg{display:none}:root>svg:target{display:block}</style><svg fill="none" viewBox="0 0 26 23" id="heart-icon" xmlns="http://www.w3.org/2000/svg"><path d="M18.81.5A7.19 7.19 0 0126 7.689c0 6.561-13 15.276-13 15.276S0 14.565 0 7.689C0 2.746 3.22.5 7.189.5a7.175 7.175 0 015.81 2.968A7.176 7.176 0 0118.812.5z" fill="#DA4237"/></svg><svg fill="none" viewBox="0 0 53 53" id="index-about-icon-1" xmlns="http://www.w3.org/2000/svg"><circle cx="26.5" cy="26.5" r="25.732" stroke="#DA4237" stroke-width="1.536"/><path d="M28.936 33.163a25.301 25.301 0 01-2.803 1.816.27.27 0 01-.266 0C20.19 31.786 18 28.125 18 25.027c0-2.697 1.632-5.013 4-5.013 2.274 0 3.586 1.654 3.917 2.13a.1.1 0 00.166 0c.331-.476 1.643-2.13 3.917-2.13 2.368 0 4 2.316 4 5.013 0 1.792-.733 3.772-2.449 5.741M26.012 14v1.486m0 23.056v1.486m-6.507-24.284l.743 1.287m11.528 19.966l.743 1.288m3.476-5.507l1.287.743m.258-6.507h1.486m-3.031-5.764l1.287-.743M19.505 38.285l.743-1.288M31.776 17.03l.743-1.286" stroke="#DA4237" stroke-width=".938" stroke-miterlimit="10" stroke-linecap="round" stroke-linejoin="round"/></svg><svg fill="none" viewBox="0 0 53 53" id="index-about-icon-2" xmlns="http://www.w3.org/2000/svg"><circle cx="26.5" cy="26.5" r="25.732" stroke="#DA4237" stroke-width="1.536"/><path d="M35.29 30.665c-.508.364-1.087.722-1.739 1.071a.175.175 0 01-.164 0c-3.523-1.883-4.882-4.042-4.882-5.87 0-1.59 1.013-2.956 2.482-2.956 1.41 0 2.225.975 2.43 1.256a.064.064 0 00.104 0c.205-.28 1.019-1.256 2.43-1.256 1.47 0 2.482 1.366 2.482 2.957 0 1.056-.455 2.224-1.52 3.386m-17.775 1.884v.21c0 .554-.45 1.004-1.004 1.004h-1.29m-.125-2.688v5.671a.953.953 0 01-.953.954h-1.844a.953.953 0 01-.953-.953V30.98" stroke="#DA4237" stroke-width=".938" stroke-miterlimit="10" stroke-linecap="round" stroke-linejoin="round"/><path d="M20.666 21.972c2.397-1.825 3.533-3.753 3.533-3.753V35.78s-2.367-3.812-7.48-5.943v-5.676c.772-.29 1.48-.629 2.129-.993m-2.807 7.644h-2.65a2.923 2.923 0 01-2.922-2.923V26.11a2.923 2.923 0 012.923-2.923h2.65c.373 0 .677.304.677.678v6.27a.678.678 0 01-.678.677z" stroke="#DA4237" stroke-width=".938" stroke-miterlimit="10" stroke-linecap="round" stroke-linejoin="round"/><path d="M13.416 28.937c-.592 0-1.072-.48-1.072-1.072v-1.73c0-.592.48-1.073 1.072-1.073h.355c.593 0 1.073.48 1.073 1.073v1.73c0 .592-.48 1.072-1.073 1.072h-.355zM25.324 37.5a1.125 1.125 0 01-1.125-1.125v-18.75a1.125 1.125 0 012.25 0v18.75c0 .621-.504 1.125-1.125 1.125zm8.145-18.562v.92m0 14.284v.92m-4.031-15.044l.46.797m7.142 12.37l.46.797m2.154-3.412l.797.461M40.61 27h.921m-1.877-3.57l.797-.461M29.438 33.982l.46-.797m7.142-12.37l.46-.797" stroke="#DA4237" stroke-width=".938" stroke-miterlimit="10" stroke-linecap="round" stroke-linejoin="round"/></svg><svg fill="none" viewBox="0 0 41 38" id="index-report-arrow" xmlns="http://www.w3.org/2000/svg"><path d="M40.496 4.147a2.5 2.5 0 00-2.35-2.643L15.687.184a2.5 2.5 0 00-.294 4.99L35.358 6.35l-1.175 19.965a2.5 2.5 0 104.991.294l1.322-22.461zM3.66 37.868l36-32-3.322-3.737-36 32 3.322 3.737z" fill="#DA4237"/></svg><svg fill="none" viewBox="0 0 96 65" id="quotes-icon" xmlns="http://www.w3.org/2000/svg"><path d="M18.038 42.278c-2.104 5.077-5.42 10.092-9.85 14.923-1.402 1.53-1.594 3.73-.446 5.443.892 1.346 2.359 2.08 3.952 2.08.447 0 .893-.03 1.34-.184 9.37-2.63 31.269-11.956 31.874-41.863C45.131 11.148 36.334 1.24 24.891.109 18.548-.503 12.236 1.485 7.55 5.52a21.578 21.578 0 00-5.438 7.22 20.78 20.78 0 00-1.925 8.712c0 10.092 7.458 18.93 17.85 20.825zM75.763.108c-6.311-.61-12.622 1.377-17.308 5.413a21.576 21.576 0 00-5.438 7.22 20.777 20.777 0 00-1.925 8.712c0 10.092 7.459 18.93 17.85 20.825-2.104 5.077-5.419 10.092-9.85 14.923-1.402 1.53-1.593 3.73-.446 5.443.893 1.346 2.359 2.08 3.953 2.08.446 0 .892-.03 1.339-.184 9.37-2.63 31.269-11.956 31.874-41.863v-.428c0-11.345-8.701-21.009-20.049-22.14z" fill="#fff"/></svg><svg fill="none" viewBox="0 0 64 64" id="socials-1-icon" xmlns="http://www.w3.org/2000/svg"><path d="M.5 32C.5 14.603 14.603.5 32 .5S63.5 14.603 63.5 32 49.397 63.5 32 63.5.5 49.397.5 32z" stroke="#fff"/><path fill-rule="evenodd" clip-rule="evenodd" d="M43.46 26.53c.178-.535 0-1.53-.788-1.53h-2.588c-.661 0-1 .946-1.178 1.311 0 0-1.349 3.114-3.232 5.133-.61.584-.89.779-1.221.779a.72.72 0 01-.65-.73l.048-5.182c0-.632-.009-1.311-.569-1.311H29.16c-.407 0-.661.873-.661 1.165 0 .608 1.257.351 1.358 2.054v4.101c0 .803-.468.949-.799.949-.89 0-3.053-3.138-4.35-6.714-.255-.706-.51-1.555-1.171-1.555H20.89c-.764 0-.891.922-.891 1.287 0 .657.89 3.965 4.148 8.344 2.162 2.993 5.241 4.158 8.015 4.158 1.68 0 1.883.075 1.883-.533v-2.262c0-.73.152-.852.687-.852.381 0 1.068.195 2.62 1.63 1.782 1.703 2.087 2.017 3.08 2.017h2.134c.764 0 1.606.1 1.402-.606-.229-.705-1.094-1.727-2.214-2.943-.61-.682-1.526-1.436-1.806-1.8-.382-.487-.28-.682 0-1.12-.026 0 3.18-4.33 3.511-5.79z" fill="#fff"/></svg><svg fill="none" viewBox="0 0 64 64" id="socials-2-icon" xmlns="http://www.w3.org/2000/svg"><path d="M.5 32C.5 14.603 14.603.5 32 .5S63.5 14.603 63.5 32 49.397 63.5 32 63.5.5 49.397.5 32z" stroke="#fff"/><g clip-path="url(#ga)"><mask id="ga" style="mask-type:luminance" maskUnits="userSpaceOnUse" x="20" y="20" width="24" height="24"><path d="M44 20H20v24h24V20z" fill="#fff"/></mask><g mask="url(#ga)"><path d="M42.052 22.129l-21.263 8.242c-.856.384-1.145 1.152-.207 1.57l5.455 1.742 13.189-8.193c.72-.515 1.457-.378.823.188L28.72 35.988l-.356 4.363c.33.673.934.676 1.318.342l3.134-2.981 5.368 4.04c1.246.742 1.925.263 2.193-1.097l3.52-16.756c.366-1.674-.257-2.411-1.846-1.77z" fill="#fff"/></g></g><defs><clipPath id="ga"><path fill="#fff" transform="translate(20 20)" d="M0 0h24v24H0z"/></clipPath></defs></svg><svg fill="none" viewBox="0 0 64 64" id="socials-3-icon" xmlns="http://www.w3.org/2000/svg"><path d="M.5 32C.5 14.603 14.603.5 32 .5S63.5 14.603 63.5 32 49.397 63.5 32 63.5.5 49.397.5 32z" stroke="#fff"/><path fill-rule="evenodd" clip-rule="evenodd" d="M43.5 26.555c-.275-1.004-1.088-1.796-2.123-2.068C39.507 24 32 24 32 24s-7.502 0-9.377.487a2.972 2.972 0 00-2.123 2.068c-.5 1.822-.5 5.627-.5 5.627s0 3.804.5 5.627c.275 1.004 1.088 1.796 2.123 2.068 1.875.487 9.377.487 9.377.487s7.506 0 9.377-.487a2.973 2.973 0 002.123-2.068c.5-1.823.5-5.627.5-5.627s0-3.805-.5-5.627zm-7.663 5.627l-6.235 3.507v-7.014l6.235 3.507z" fill="#fff"/></svg><svg fill="none" viewBox="0 0 64 64" id="socials-4-icon" xmlns="http://www.w3.org/2000/svg"><path d="M.5 32C.5 14.603 14.603.5 32 .5S63.5 14.603 63.5 32 49.397 63.5 32 63.5.5 49.397.5 32z" stroke="#fff"/><g clip-path="url(#ia)" fill="#fff"><path d="M31.72 31.963c3.446 0 5.995-2.925 5.995-6.22 0-3.296-2.55-5.743-5.994-5.743-3.445 0-5.969 2.686-5.969 5.982 0 3.295 2.524 5.981 5.969 5.981zm0-8.453c1.424 0 2.584 1.11 2.584 2.472 0 1.36-1.16 2.471-2.583 2.471-1.423 0-2.584-1.11-2.584-2.471s1.161-2.472 2.584-2.472zm2.457 14.167a11.288 11.288 0 003.471-1.435c.823-.502 1.074-1.614.537-2.44-.501-.824-1.61-1.075-2.433-.537a7.581 7.581 0 01-8.051 0 1.78 1.78 0 00-2.433.538 1.79 1.79 0 00.537 2.44 11.287 11.287 0 003.47 1.434l-3.327 3.337a1.757 1.757 0 000 2.475c.357.359.787.502 1.252.502.465 0 .895-.18 1.252-.502l3.292-3.3 3.292 3.3c.68.681 1.79.681 2.469 0 .68-.682.68-1.794 0-2.475l-3.328-3.337z"/></g><defs><clipPath id="ia"><path fill="#fff" transform="translate(20 20)" d="M0 0h24v24H0z"/></clipPath></defs></svg></svg>