<?xml version="1.0" encoding="utf-8"?><svg viewBox="0 0 396 307" xmlns="http://www.w3.org/2000/svg" xmlns:xlink="http://www.w3.org/1999/xlink"><style>:root>svg{display:none}:root>svg:target{display:block}</style><svg fill="none" viewBox="0.23 0 56.03 120" id="about-slider-arrow-icon" xmlns="http://www.w3.org/2000/svg"><path d="M51.266 0h5v120h-5V0zM33.484 93.25L.234 60l33.25-33.25 3.532 3.531L7.296 60l29.72 29.719-3.532 3.531z" fill="#DA4237"/></svg><svg fill="none" viewBox="0 0 396 307" id="heading-cover-icon" xmlns="http://www.w3.org/2000/svg"><g opacity=".5"><path d="M310.969 61.16c.046-.783.046-1.567.046-2.35 0-31.525-26.594-58.81-59.363-58.81-23.966 0-44.614 15.44-53.97 35.074C188.326 15.394 167.678 0 143.712 0c-32.77 0-59.363 27.33-59.363 58.81 0 .783.046 1.567.046 2.35 0 0-3.364 37.424 38.3 78.305 18.943 18.989 40.144 37.01 74.987 65.355 34.843-28.345 56.044-46.366 74.987-65.355 41.664-40.835 38.3-78.305 38.3-78.305z" fill="#fff"/><path d="M53.009 201.732s-12.122-24.243-19.91-30.742c-7.79-6.498-4.333-15.578 9.955-13.412 14.287 2.167 33.783 27.7 43.323 39.406 9.54 11.707 20.372 12.583 20.372 12.583 35.073 5.208 45.397 7.697 64.57 37.977 24.658 38.991 6.084 57.151-19.91 55.445-25.994-1.751-39.821-14.702-39.821-14.702s-36.871-23.275-51.159-29.774c-14.288-6.498-45.905-72.774-53.279-90.518-7.374-17.745-1.75-80.979 8.665-80.564 10.416.415 16.039 6.498 16.039 29.451 0 22.952 2.166 33.783 2.166 33.783m308.336 51.067s12.121-24.243 19.91-30.742c7.789-6.498 4.332-15.578-9.955-13.412-14.288 2.167-33.784 27.7-43.324 39.407-9.54 11.706-20.371 12.582-20.371 12.582-35.074 5.208-45.398 7.697-64.571 37.977-24.658 38.991-6.084 57.151 19.91 55.445 25.995-1.751 39.821-14.702 39.821-14.702s36.872-23.275 51.159-29.774c14.288-6.498 45.905-72.774 53.279-90.518 7.374-17.745 1.751-80.979-8.665-80.564-10.416.415-16.039 6.498-16.039 29.451 0 22.952-2.166 33.783-2.166 33.783" stroke="#fff" stroke-width="7" stroke-miterlimit="10" stroke-linecap="round" stroke-linejoin="round"/></g></svg><svg fill="none" viewBox="0 0 26 23" id="heart-icon" xmlns="http://www.w3.org/2000/svg"><path d="M18.81.5A7.19 7.19 0 0126 7.689c0 6.561-13 15.276-13 15.276S0 14.565 0 7.689C0 2.746 3.22.5 7.189.5a7.175 7.175 0 015.81 2.968A7.176 7.176 0 0118.812.5z" fill="#DA4237"/></svg><svg fill="none" viewBox="0 0 53 53" id="index-about-icon-1" xmlns="http://www.w3.org/2000/svg"><circle cx="26.5" cy="26.5" r="25.732" stroke="#DA4237" stroke-width="1.536"/><path d="M28.936 33.163a25.301 25.301 0 01-2.803 1.816.27.27 0 01-.266 0C20.19 31.786 18 28.125 18 25.027c0-2.697 1.632-5.013 4-5.013 2.274 0 3.586 1.654 3.917 2.13a.1.1 0 00.166 0c.331-.476 1.643-2.13 3.917-2.13 2.368 0 4 2.316 4 5.013 0 1.792-.733 3.772-2.449 5.741M26.012 14v1.486m0 23.056v1.486m-6.507-24.284l.743 1.287m11.528 19.966l.743 1.288m3.476-5.507l1.287.743m.258-6.507h1.486m-3.031-5.764l1.287-.743M19.505 38.285l.743-1.288M31.776 17.03l.743-1.286" stroke="#DA4237" stroke-width=".938" stroke-miterlimit="10" stroke-linecap="round" stroke-linejoin="round"/></svg><svg fill="none" viewBox="0 0 53 53" id="index-about-icon-2" xmlns="http://www.w3.org/2000/svg"><circle cx="26.5" cy="26.5" r="25.732" stroke="#DA4237" stroke-width="1.536"/><path d="M35.29 30.665c-.508.364-1.087.722-1.739 1.071a.175.175 0 01-.164 0c-3.523-1.883-4.882-4.042-4.882-5.87 0-1.59 1.013-2.956 2.482-2.956 1.41 0 2.225.975 2.43 1.256a.064.064 0 00.104 0c.205-.28 1.019-1.256 2.43-1.256 1.47 0 2.482 1.366 2.482 2.957 0 1.056-.455 2.224-1.52 3.386m-17.775 1.884v.21c0 .554-.45 1.004-1.004 1.004h-1.29m-.125-2.688v5.671a.953.953 0 01-.953.954h-1.844a.953.953 0 01-.953-.953V30.98" stroke="#DA4237" stroke-width=".938" stroke-miterlimit="10" stroke-linecap="round" stroke-linejoin="round"/><path d="M20.666 21.972c2.397-1.825 3.533-3.753 3.533-3.753V35.78s-2.367-3.812-7.48-5.943v-5.676c.772-.29 1.48-.629 2.129-.993m-2.807 7.644h-2.65a2.923 2.923 0 01-2.922-2.923V26.11a2.923 2.923 0 012.923-2.923h2.65c.373 0 .677.304.677.678v6.27a.678.678 0 01-.678.677z" stroke="#DA4237" stroke-width=".938" stroke-miterlimit="10" stroke-linecap="round" stroke-linejoin="round"/><path d="M13.416 28.937c-.592 0-1.072-.48-1.072-1.072v-1.73c0-.592.48-1.073 1.072-1.073h.355c.593 0 1.073.48 1.073 1.073v1.73c0 .592-.48 1.072-1.073 1.072h-.355zM25.324 37.5a1.125 1.125 0 01-1.125-1.125v-18.75a1.125 1.125 0 012.25 0v18.75c0 .621-.504 1.125-1.125 1.125zm8.145-18.562v.92m0 14.284v.92m-4.031-15.044l.46.797m7.142 12.37l.46.797m2.154-3.412l.797.461M40.61 27h.921m-1.877-3.57l.797-.461M29.438 33.982l.46-.797m7.142-12.37l.46-.797" stroke="#DA4237" stroke-width=".938" stroke-miterlimit="10" stroke-linecap="round" stroke-linejoin="round"/></svg><svg fill="none" viewBox="0 0 41 38" id="index-report-arrow" xmlns="http://www.w3.org/2000/svg"><path d="M40.496 4.147a2.5 2.5 0 00-2.35-2.643L15.687.184a2.5 2.5 0 00-.294 4.99L35.358 6.35l-1.175 19.965a2.5 2.5 0 104.991.294l1.322-22.461zM3.66 37.868l36-32-3.322-3.737-36 32 3.322 3.737z" fill="#DA4237"/></svg><svg fill="none" viewBox="0 0 53 22" id="isart-logo-icon" xmlns="http://www.w3.org/2000/svg"><g clip-path="url(#ga)" fill-rule="evenodd" clip-rule="evenodd" fill="#fff"><path d="M.799 18.19c.01-.086.028-.173.048-.25l.057-.318c.01-.048.01-.105.03-.163.009-.048.019-.087.028-.125.01-.087.029-.174.039-.27.01-.086.038-.173.048-.24 0-.058.086-.549.106-.587 0-.077.115-.8.134-.838.01-.134.058-.288.068-.423.01-.154.067-.356.086-.51.01-.135.049-.308.068-.443a2.28 2.28 0 01.038-.221c.01-.058.03-.116.03-.193.028-.096.038-.279.067-.356.01-.144.048-.289.067-.433.01-.058.02-.096.029-.164.01-.048 0-.086.029-.106 0-.125.048-.25.048-.356.029-.163.067-.337.086-.5l.058-.337c.01-.038.02-.125.029-.164.01-.057.02-.077.02-.134.009-.087.028-.174.047-.26.01-.068.039-.173.039-.231a3.6 3.6 0 00.048-.289c.01-.192.087-.385.087-.587a1.25 1.25 0 00.048-.26c.019-.096.038-.202.048-.289l.087-.529c.01-.038.01-.048.01-.087 0-.019 0-.019.009-.038l.01-.02c0-.144.048-.317.067-.452 0-.057.048-.337.067-.365 0-.126.039-.174.039-.29.01-.047.048-.22.048-.278 0-.068.02-.096.029-.164l.077-.404c0-.125.019-.183.038-.299.01-.038.039-.22.048-.269.01-.087.03-.144.039-.24.01-.068.087-.607.115-.636 0-.086.01-.106.03-.183.009-.067.047-.404.076-.433 0-.106.02-.183.039-.289.019-.096.019-.163.048-.24l.106-.606c0-.078.086-.597.106-.626 0-.087.077-.549.106-.606 0-.068.048-.366.067-.405 0-.086.029-.24.048-.327 0-.058.125-.77.135-.808 0-.135.048-.299.067-.433 0-.077.01-.058.02-.116h20.933l-.097.635c-.019.096.01.039-.038.077l.01.048c-.03.145-.106.78-.155.847.01.087-.077.664-.115.722.01.096-.077.578-.106.693l-.058.327-.183 1.001c.01.068-.076.597-.105.645.01.144-.049.366-.077.52l-.087.51c-.01.02-.01.02-.01.038l-.01.03c.01.076-.009.26-.057.317.01.106-.038.308-.058.414-.019.115-.096.673-.134.722.01.086-.058.548-.106.606.01.048-.039.443-.087.5.02.125-.096.597-.116.77-.028.106-.038.222-.057.328l-.068.336c.01.048-.048.54-.105.616.019.077-.01.26-.058.318.01.087-.02.183-.03.28l-.105.528c.01.068-.02.29-.058.337.01.097-.038.433-.086.5.01.097-.02.203-.039.3-.01.066-.029.24-.067.288.01.058 0 .106-.01.163 0 .03-.01.058-.019.087-.01.058 0 .029-.029.067.01.068 0 .106-.01.164 0 .02-.01.058-.01.077-.009.058 0 .029-.028.068l-.058.452c-.038.115.039-.096-.01.029 0 0-.009.019-.009.01 0 0 0 .009-.01.009.01.058 0 .106-.01.164l-.038.144c.02.077-.048.481-.086.539.01.096-.058.548-.106.606.01.096-.039.453-.087.51.01.077-.01.25-.048.308.01.087-.02.193-.039.29l-.067.423c-.01.067-.048.336-.077.394.02.096-.02.221-.039.327-.019.097-.019.231-.067.299.01.086-.02.183-.029.27-.01.076-.019.192-.057.24.019.115-.049.356-.068.481-.02.125-.019.356-.087.443.01.096-.038.452-.086.51.01.086-.068.568-.106.616.01.115-.058.433-.077.568-.02.144.01.163-.135.173H2.935v-.01c-.577 0-1.155 0-1.723.01H.182c.01-.077.03-.164.049-.25l.077-.5c.01-.04.029-.213.048-.232 0-.058.067-.5.087-.53 0-.067.019-.163.028-.22.212-1.233.049-.164.299-1.79l.029.028zm4.388 1.675H8.44c1.011-4.976 2.358-12.906 3.254-18.113H8.469c.039 1.145-3.128 17.256-3.272 18.123l-.01-.01zM13.33 14.6c-.03.068-.039.193-.049.28-.01.086-.048.192-.048.288 0 .058-.029.135-.038.193-.01.067-.03.154-.039.23-.019.03-.067.328-.067.395-.029.039-.106.53-.106.616l-.106.54c-.019.144-.067.26-.048.442.029.289.28.471.587.423.231-.038.212-.057.366-.144.058-.096.289-.289.27-.443.038-.057.105-.5.115-.568.029-.125.106-.51.096-.606l.01-.029c0-.01.077-.23.058-.365l.028-.097c.01-.029.01-.067.02-.106.01-.067.038-.144.019-.211.01-.02.01 0 .019-.039l.02-.086c.009-.068.009-.068.009-.126.048-.057.067-.317.087-.413.019-.125.086-.395.077-.5l.067-.29c.02-.105.048-.211.038-.308.03-.038.03-.096.02-.154.086-.134-.048-.654-.097-.798-.048-.135-.298-.54-.375-.578-.02-.048-.23-.337-.28-.366-.018-.057 0-.01-.038-.057l-.27-.337-.066-.106c-.087-.106-.491-.635-.53-.645-.019-.067-.183-.26-.24-.327-.049-.058-.212-.289-.25-.308-.02-.039-.25-.366-.29-.385-.047-.116-.134-.222-.201-.337A1.568 1.568 0 0112 9.095c-.019-.048-.048-.144-.077-.183-.038-.221-.057-.327-.048-.568l.087-.615.144-.809c.029-.135.106-.481.087-.597.048-.067.086-.375.086-.471.039-.048.116-.54.106-.607.068-.106.097-.558.145-.721.019-.135.096-.434.086-.549.02-.02.01 0 .02-.039l.038-.163c.02-.068.048-.145.038-.212.03-.038.02-.02.039-.077.01-.029.02-.048.029-.077.02-.058.038-.096.038-.164.048-.048.106-.211.135-.288l.154-.289c.048-.029.096-.106.135-.154.048-.067.086-.096.144-.144.048-.039.318-.222.327-.241.087-.029.183-.096.28-.135.096-.038.183-.077.288-.106.222-.067.414-.096.655-.115.683-.02 1.386 0 2.079 0 .664 0 1.29.058 1.645.443.077.077.241.298.29.433.038.115.086.202.115.327a1.921 1.921 0 01.019.664c-.01.077-.029.173-.029.26-.01.087-.038.192-.048.279-.01.096-.029.231-.058.308 0 .067-.029.173-.038.25-.02.096-.039.193-.048.28-.01.028-.049.25-.049.288-.01.067-.028.144-.048.231-.019.096-.038.183-.038.28-.03.086-.039.201-.058.307-.02.125-.038.222-.058.337 0 .067-.038.23-.048.289-.01.057-.01.077-.019.144-.01.048-.029.106-.029.173a2.46 2.46 0 01-.048.231 1.31 1.31 0 00-.039.26 2.82 2.82 0 01-.048.212l-2.57.01c0-.183.116-.51.107-.684.048-.058.096-.423.086-.51.02-.029.01 0 .02-.048l.076-.51c.058-.067.106-.616.145-.741.019-.135.077-.337.067-.462.039-.058.039-.202.068-.27l.01-.096.028-.125c.077-.375-.067-.703-.462-.703-.318 0-.645.193-.741.462-.02.049-.02.077-.039.116-.019.096-.048.23-.048.327-.019.087-.029.145-.048.24-.02.097-.038.174-.038.28l-.039.144-.029.173c-.019.126-.048.241-.057.357-.03.019-.02.077-.03.125-.009.067-.019.086-.028.144-.01.087-.048.212-.048.298-.02.077-.03.145-.048.241-.02.096-.039.173-.039.28-.029.038-.067.317-.077.413-.01.067-.029.337-.01.404.02.058-.019.02.03.048-.049.135.124.472.201.607.049.077-.01.029.068.067-.01.048-.01.01 0 .048 0 .02.019.039.029.058l.462.626c.038.028-.03 0 .038.028 0 .058.231.328.28.366l.346.404c0 .01-.02.01.029.077l.433.54.24.298c.068.086.039.067.096.096.01.058.145.221.183.289.077.115.145.279.203.308-.02.057-.01.019.019.086.019.03.019.039.038.087l.125.356c.039.144.01.154.058.193-.048.115-.02.288-.02.413-.009.077-.018.097-.018.193-.02.029-.087.5-.087.577-.029.03 0-.01-.02.039 0 .01-.009.067-.009.067-.01.068-.02.106-.02.164a3.928 3.928 0 00-.086.49 2.401 2.401 0 00-.048.29c-.01.105-.048.202-.048.327-.02.019-.02.067-.029.106-.01.057-.01.086-.02.134-.018.097-.028.203-.047.29 0 .095-.048.23-.048.346-.02.028-.049.22-.049.279-.019.134-.057.27-.067.414-.02.048-.067.336-.067.413-.03.02-.03.096-.03.135-.009.067-.018.096-.028.164-.02.115-.048.24-.058.356a1.45 1.45 0 00-.048.211c-.02.068-.048.174-.058.25l-.163.463c-.087.212-.193.337-.231.433-.02.01-.135.173-.164.212-.038.048-.048.057-.087.105l-.105.116c-.077.106-.385.327-.53.385-.077.029-.144.048-.221.096-.087.01-.423.125-.731.135l-.857.02c-.164 0-.27.018-.414.018h-1.116c-.106 0-.126-.019-.222-.019-.048 0-.183-.029-.24-.038-.039-.01-.068-.01-.116-.02s-.067-.028-.125-.028c-.337-.077-.433-.193-.606-.318-.03-.02-.01-.01-.03-.02-.028-.047 0-.009-.038-.057-.01-.02-.019-.02-.029-.038l-.327-.616c-.01-.087-.038-.164-.048-.25-.01-.097.01-.184-.01-.27.03-.058.068-.5.077-.606.02-.154.097-.472.087-.597a.759.759 0 00.058-.327l.01-.03s.086-.317.067-.442c.038-.048.135-.616.125-.703l.038-.144c.01-.067.03-.106.01-.164l.02-.057c0-.01.009-.048.009-.058.01-.039.01-.077.02-.116.009-.076.038-.163.028-.24.048-.067.096-.385.087-.481.038-.058.115-.597.134-.712.058-.049 1.213-.02 1.28-.02h1.31l-.097.568-.038.222c-.02.105-.058.211-.058.327h-.039zm19.153-6.237l.077 1.213c.01.068.01.116.01.212 0 .096.018.106.018.202 0 .27.048.549.048.828l.03.394c.019.145.019.28.019.424 0 .115.028.279.038.394l.029.597c0 .096.02.116.02.202l.047.828c0 .096.02.106.02.202 0 .24.028.356.028.616l.039.414h-1.713l.317-1.636c.048-.28.116-.54.164-.818.02-.135.048-.26.077-.405.029-.144.058-.27.077-.413l.318-1.637c.057-.27.096-.548.163-.818l.116-.606c.01-.039.01-.048.019-.106l.029-.106.01.02zm9.278 2.869h-1.666c-.067 0-.038-.058-.038-.135l.192-3.051c0-.096.02-.106.02-.193l.057-1.02c.01-.067.01-.125.01-.202 0-.173.048-.606.048-.808 0-.097.02-.116.02-.202l.019-.414c.01-.116.028-.29.028-.414h1.781c.49 0 .346.366.346.75l-.22 3.446c0 .077.009.144 0 .221-.05.434-.05.992-.097 1.415-.029.26.077.597-.5.597v.01zm-11.646 8.97l.115-.568.116-.587c.038-.193.077-.385.115-.587.039-.193.077-.395.126-.578h2.54c0 .164.048.423.048.587.01.289.058.587.068.876.01.193.048.395.048.597 0 .086-.01.26.067.26h6.073c.077 0 .049-.135.068-.328.019-.24.019-.5.048-.74.01-.058 0-.126 0-.184l.067-.933c.02-.173.01-.395.039-.568.029-.183.019-.375.038-.568.01-.058 0-.115.01-.183l.096-1.492c0-.077 0-.125.01-.202a6.67 6.67 0 00.048-.76h.443c.067 0 .057.087.077.144l.49 2.06.183.76c.193.751.376 1.492.54 2.252l.134.568c.02.068.01.164.077.164h3.821c0-.087-.067-.28-.096-.375l-.395-1.473c-.154-.626-.346-1.242-.5-1.867-.154-.616-.347-1.242-.491-1.858-.03-.125-.077-.25-.106-.375.472 0 .828-.125 1.088-.337a1.83 1.83 0 00.693-1.463l.211-3.368c.02-.106.01-.24.029-.337l.039-.684c0-.077.01-.096.019-.154.01-.067 0-.115.01-.182.028-.164.019-.337.028-.5l.048-.675c.01-.163.01-.356.03-.52l.057-1.02h1.145c0 .318-.048.626-.048.944l-.067.943c-.02.163-.01.317-.02.481l-.067.943c0 .174-.01.337-.029.481l-.23 3.793c-.02.134-.02.336-.03.471 0 .087-.019.116-.019.221l-.308 5.005c-.01.145-.038.318-.038.462l-.058.953c-.02.144-.029.318-.029.481h3.773c.077 0 .048-.106.048-.192 0-.154.039-.308.039-.481l.077-1.194a3.64 3.64 0 00.029-.472c0-.086.019-.125.019-.24 0-.116.019-.144.019-.24 0-.126.01-.347.029-.472.029-.164.01-.327.029-.491.01-.144.029-.308.029-.462l.038-.481c0-.106.01-.145.02-.222l.038-.74c.019-.28.057-.665.067-.944l.048-.963c.01-.144.039-.307.039-.461 0-.164.029-.328.038-.482.01-.336.039-.625.048-.962l.337-5.226c.01-.087.01-.154.01-.25 0-.087.02-.126.02-.241h2.502c-.068-.28-.116-.568-.183-.866l-.26-1.3c-.03-.154-.058-.288-.087-.442-.029-.135-.058-.289-.087-.424-.028-.154-.077-.298-.077-.452h-6.93c-.009.067-.028.115-.047.173-.058.164-.135.347-.173.51h-.039c-.02-.067-.087-.115-.135-.163a1.449 1.449 0 00-.356-.241c-.318-.192-.818-.28-1.242-.28H36.91c0 .26-.039.463-.039.704 0 .077-.01.105-.01.154-.01.067 0 .125-.01.182-.009.097-.018.25-.028.347-.01.058 0 .115 0 .173l-.058.886c-.029.211-.038.789-.057 1.058l-.03.52c0 .183-.038.337-.038.51l-.106 1.578c-.01.29-.057.588-.048.876 0 .29-.038.587-.048.876l-.135 2.079c0 .414-.067.837-.067 1.251h-.02c0-.346-.124-1-.153-1.386l-.03-.23c-.009-.097-.009-.145-.018-.232l-.328-2.762c-.086-.606-.125-1.241-.221-1.838l-.058-.462-.49-4.158c-.02-.173-.04-.115-.405-.115h-3.619l-.654 2.704c-.51 2.03-.982 4.071-1.492 6.111a17.18 17.18 0 00-.164.674l-1.068 4.399-.086.346-.992 4.071c-.01.03-.086.337-.086.337.01.048 0 .029.057.029h3.706v.038z"/></g><defs><clipPath id="ga"><path fill="#fff" transform="translate(.183)" d="M0 0h52.338v21.684H0z"/></clipPath></defs></svg><svg fill="none" viewBox="0 0 24 24" id="modal-close-icon" xmlns="http://www.w3.org/2000/svg"><path d="M2.505 2l18.991 20M22 2.505L2 21.496" stroke="#fff" stroke-width="3"/></svg><svg fill="none" viewBox="0 0 96 65" id="quotes-icon" xmlns="http://www.w3.org/2000/svg"><path d="M18.038 42.278c-2.104 5.077-5.42 10.092-9.85 14.923-1.402 1.53-1.594 3.73-.446 5.443.892 1.346 2.359 2.08 3.952 2.08.447 0 .893-.03 1.34-.184 9.37-2.63 31.269-11.956 31.874-41.863C45.131 11.148 36.334 1.24 24.891.109 18.548-.503 12.236 1.485 7.55 5.52a21.578 21.578 0 00-5.438 7.22 20.78 20.78 0 00-1.925 8.712c0 10.092 7.458 18.93 17.85 20.825zM75.763.108c-6.311-.61-12.622 1.377-17.308 5.413a21.576 21.576 0 00-5.438 7.22 20.777 20.777 0 00-1.925 8.712c0 10.092 7.459 18.93 17.85 20.825-2.104 5.077-5.419 10.092-9.85 14.923-1.402 1.53-1.593 3.73-.446 5.443.893 1.346 2.359 2.08 3.953 2.08.446 0 .892-.03 1.339-.184 9.37-2.63 31.269-11.956 31.874-41.863v-.428c0-11.345-8.701-21.009-20.049-22.14z" fill="#fff"/></svg><svg fill="none" viewBox="0 0 76 76" id="reports-item-slider-arrow-icon" xmlns="http://www.w3.org/2000/svg"><g clip-path="url(#ja)" fill="#DA4237"><path d="M38 76c20.987 0 38-17.013 38-38C76 17.014 58.987 0 38 0 17.014 0 0 17.014 0 38c.024 20.977 17.023 37.977 38 38zm0-72.2c18.89 0 34.2 15.312 34.2 34.2 0 18.888-15.312 34.2-34.2 34.2C19.112 72.2 3.8 56.888 3.8 38 3.822 19.121 19.121 3.822 38 3.8z"/><path d="M42.449 52.73a1.9 1.9 0 102.501-2.86L31.385 38 44.95 26.13a1.9 1.9 0 10-2.502-2.86l-15.2 13.3a1.902 1.902 0 000 2.861l15.2 13.3z"/></g><defs><clipPath id="ja"><path fill="#fff" transform="rotate(-180 38 38)" d="M0 0h76v76H0z"/></clipPath></defs></svg><svg fill="none" viewBox="0 0 24 24" id="socials-1-icon" xmlns="http://www.w3.org/2000/svg"><path fill-rule="evenodd" clip-rule="evenodd" d="M23.46 6.53c.178-.535 0-1.53-.788-1.53h-2.588c-.661 0-1 .946-1.178 1.311 0 0-1.349 3.114-3.232 5.133-.61.584-.89.779-1.221.779a.72.72 0 01-.65-.73l.048-5.182c0-.632-.009-1.311-.569-1.311H9.16c-.407 0-.661.873-.661 1.165 0 .609 1.257.351 1.358 2.054v4.101c0 .803-.468.949-.799.949-.89 0-3.053-3.138-4.35-6.714C4.452 5.849 4.197 5 3.536 5H.89C.127 5 0 5.922 0 6.287c0 .657.89 3.965 4.148 8.344 2.162 2.993 5.241 4.158 8.015 4.158 1.68 0 1.883.075 1.883-.533v-2.262c0-.73.152-.852.687-.852.381 0 1.068.195 2.62 1.63 1.782 1.703 2.087 2.017 3.08 2.017h2.134c.764 0 1.606.1 1.402-.606-.229-.705-1.094-1.727-2.213-2.943-.611-.682-1.527-1.436-1.807-1.8-.382-.487-.28-.682 0-1.12-.026 0 3.18-4.33 3.511-5.79z" fill="#fff"/></svg><svg fill="none" viewBox="0 0 24 24" id="socials-2-icon" xmlns="http://www.w3.org/2000/svg"><g clip-path="url(#la)"><mask id="la" style="mask-type:luminance" maskUnits="userSpaceOnUse" x="0" y="0" width="24" height="24"><path d="M24 0H0v24h24V0z" fill="#fff"/></mask><g mask="url(#la)"><path d="M22.052 2.129L.789 10.371c-.856.384-1.145 1.152-.207 1.57l5.455 1.742L19.226 5.49c.72-.515 1.457-.378.823.188L8.72 15.988l-.356 4.363c.33.673.933.676 1.318.342l3.134-2.981 5.368 4.04c1.246.742 1.925.263 2.193-1.097L23.898 3.9c.366-1.674-.257-2.411-1.846-1.77z" fill="#fff"/></g></g><defs><clipPath id="la"><path fill="#fff" d="M0 0h24v24H0z"/></clipPath></defs></svg><svg fill="none" viewBox="0 0 24 24" id="socials-3-icon" xmlns="http://www.w3.org/2000/svg"><path fill-rule="evenodd" clip-rule="evenodd" d="M23.5 6.555c-.275-1.004-1.088-1.796-2.123-2.068C19.507 4 12 4 12 4s-7.502 0-9.377.487A2.972 2.972 0 00.5 6.555C0 8.377 0 12.182 0 12.182s0 3.804.5 5.627c.275 1.004 1.088 1.796 2.123 2.067 1.875.488 9.377.488 9.377.488s7.506 0 9.377-.488A2.973 2.973 0 0023.5 17.81c.5-1.823.5-5.627.5-5.627s0-3.805-.5-5.627zm-7.663 5.627l-6.235 3.507V8.675l6.235 3.507z" fill="#fff"/></svg><svg fill="none" viewBox="0 0 24 24" id="socials-4-icon" xmlns="http://www.w3.org/2000/svg"><g clip-path="url(#na)" fill="#fff"><path d="M11.72 11.963c3.445 0 5.995-2.925 5.995-6.22 0-3.296-2.55-5.743-5.994-5.743-3.445 0-5.97 2.686-5.97 5.982 0 3.295 2.525 5.981 5.97 5.981zm0-8.453c1.424 0 2.584 1.11 2.584 2.472 0 1.36-1.16 2.471-2.583 2.471-1.423 0-2.584-1.11-2.584-2.471 0-1.362 1.161-2.472 2.584-2.472zm2.457 14.167a11.288 11.288 0 003.471-1.435c.823-.502 1.074-1.614.537-2.44-.501-.824-1.61-1.075-2.433-.537a7.581 7.581 0 01-8.051 0 1.78 1.78 0 00-2.433.538 1.79 1.79 0 00.537 2.44 11.287 11.287 0 003.47 1.434l-3.327 3.337a1.757 1.757 0 000 2.475c.357.359.787.502 1.252.502.465 0 .895-.18 1.252-.502l3.292-3.3 3.292 3.3c.68.681 1.79.681 2.469 0 .68-.682.68-1.794 0-2.475l-3.328-3.337z"/></g><defs><clipPath id="na"><path fill="#fff" d="M0 0h24v24H0z"/></clipPath></defs></svg></svg>