<?xml version="1.0" encoding="utf-8"?><svg viewBox="0 0 96 65" xmlns="http://www.w3.org/2000/svg" xmlns:xlink="http://www.w3.org/1999/xlink"><style>:root>svg{display:none}:root>svg:target{display:block}</style><svg fill="none" viewBox="0 0 26 23" id="heart-icon" xmlns="http://www.w3.org/2000/svg"><path d="M18.81.5A7.19 7.19 0 0126 7.689c0 6.561-13 15.276-13 15.276S0 14.565 0 7.689C0 2.746 3.22.5 7.189.5a7.175 7.175 0 015.81 2.968A7.176 7.176 0 0118.812.5z" fill="#DA4237"/></svg><svg fill="none" viewBox="0 0 53 53" id="index-about-icon-1" xmlns="http://www.w3.org/2000/svg"><circle cx="26.5" cy="26.5" r="25.732" stroke="#DA4237" stroke-width="1.536"/><path d="M28.936 33.163a25.301 25.301 0 01-2.803 1.816.27.27 0 01-.266 0C20.19 31.786 18 28.125 18 25.027c0-2.697 1.632-5.013 4-5.013 2.274 0 3.586 1.654 3.917 2.13a.1.1 0 00.166 0c.331-.476 1.643-2.13 3.917-2.13 2.368 0 4 2.316 4 5.013 0 1.792-.733 3.772-2.449 5.741M26.012 14v1.486m0 23.056v1.486m-6.507-24.284l.743 1.287m11.528 19.966l.743 1.288m3.476-5.507l1.287.743m.258-6.507h1.486m-3.031-5.764l1.287-.743M19.505 38.285l.743-1.288M31.776 17.03l.743-1.286" stroke="#DA4237" stroke-width=".938" stroke-miterlimit="10" stroke-linecap="round" stroke-linejoin="round"/></svg><svg fill="none" viewBox="0 0 53 53" id="index-about-icon-2" xmlns="http://www.w3.org/2000/svg"><circle cx="26.5" cy="26.5" r="25.732" stroke="#DA4237" stroke-width="1.536"/><path d="M35.29 30.665c-.508.364-1.087.722-1.739 1.071a.175.175 0 01-.164 0c-3.523-1.883-4.882-4.042-4.882-5.87 0-1.59 1.013-2.956 2.482-2.956 1.41 0 2.225.975 2.43 1.256a.064.064 0 00.104 0c.205-.28 1.019-1.256 2.43-1.256 1.47 0 2.482 1.366 2.482 2.957 0 1.056-.455 2.224-1.52 3.386m-17.775 1.884v.21c0 .554-.45 1.004-1.004 1.004h-1.29m-.125-2.688v5.671a.953.953 0 01-.953.954h-1.844a.953.953 0 01-.953-.953V30.98" stroke="#DA4237" stroke-width=".938" stroke-miterlimit="10" stroke-linecap="round" stroke-linejoin="round"/><path d="M20.666 21.972c2.397-1.825 3.533-3.753 3.533-3.753V35.78s-2.367-3.812-7.48-5.943v-5.676c.772-.29 1.48-.629 2.129-.993m-2.807 7.644h-2.65a2.923 2.923 0 01-2.922-2.923V26.11a2.923 2.923 0 012.923-2.923h2.65c.373 0 .677.304.677.678v6.27a.678.678 0 01-.678.677z" stroke="#DA4237" stroke-width=".938" stroke-miterlimit="10" stroke-linecap="round" stroke-linejoin="round"/><path d="M13.416 28.937c-.592 0-1.072-.48-1.072-1.072v-1.73c0-.592.48-1.073 1.072-1.073h.355c.593 0 1.073.48 1.073 1.073v1.73c0 .592-.48 1.072-1.073 1.072h-.355zM25.324 37.5a1.125 1.125 0 01-1.125-1.125v-18.75a1.125 1.125 0 012.25 0v18.75c0 .621-.504 1.125-1.125 1.125zm8.145-18.562v.92m0 14.284v.92m-4.031-15.044l.46.797m7.142 12.37l.46.797m2.154-3.412l.797.461M40.61 27h.921m-1.877-3.57l.797-.461M29.438 33.982l.46-.797m7.142-12.37l.46-.797" stroke="#DA4237" stroke-width=".938" stroke-miterlimit="10" stroke-linecap="round" stroke-linejoin="round"/></svg><svg fill="none" viewBox="0 0 96 65" id="quotes-icon" xmlns="http://www.w3.org/2000/svg"><path d="M18.038 42.278c-2.104 5.077-5.42 10.092-9.85 14.923-1.402 1.53-1.594 3.73-.446 5.443.892 1.346 2.359 2.08 3.952 2.08.447 0 .893-.03 1.34-.184 9.37-2.63 31.269-11.956 31.874-41.863C45.131 11.148 36.334 1.24 24.891.109 18.548-.503 12.236 1.485 7.55 5.52a21.578 21.578 0 00-5.438 7.22 20.78 20.78 0 00-1.925 8.712c0 10.092 7.458 18.93 17.85 20.825zM75.763.108c-6.311-.61-12.622 1.377-17.308 5.413a21.576 21.576 0 00-5.438 7.22 20.777 20.777 0 00-1.925 8.712c0 10.092 7.459 18.93 17.85 20.825-2.104 5.077-5.419 10.092-9.85 14.923-1.402 1.53-1.593 3.73-.446 5.443.893 1.346 2.359 2.08 3.953 2.08.446 0 .892-.03 1.339-.184 9.37-2.63 31.269-11.956 31.874-41.863v-.428c0-11.345-8.701-21.009-20.049-22.14z" fill="#fff"/></svg></svg>