<?xml version="1.0" encoding="utf-8"?><svg viewBox="0 0 96 65" xmlns="http://www.w3.org/2000/svg" xmlns:xlink="http://www.w3.org/1999/xlink"><style>:root>svg{display:none}:root>svg:target{display:block}</style><svg fill="none" viewBox="0 0 26 23" id="heart-icon" xmlns="http://www.w3.org/2000/svg"><path d="M18.81.5A7.19 7.19 0 0126 7.689c0 6.561-13 15.276-13 15.276S0 14.565 0 7.689C0 2.746 3.22.5 7.189.5a7.175 7.175 0 015.81 2.968A7.176 7.176 0 0118.812.5z" fill="#DA4237"/></svg><svg fill="none" viewBox="0 0 96 65" id="quotes-icon" xmlns="http://www.w3.org/2000/svg"><path d="M18.038 42.278c-2.104 5.077-5.42 10.092-9.85 14.923-1.402 1.53-1.594 3.73-.446 5.443.892 1.346 2.359 2.08 3.952 2.08.447 0 .893-.03 1.34-.184 9.37-2.63 31.269-11.956 31.874-41.863C45.131 11.148 36.334 1.24 24.891.109 18.548-.503 12.236 1.485 7.55 5.52a21.578 21.578 0 00-5.438 7.22 20.78 20.78 0 00-1.925 8.712c0 10.092 7.458 18.93 17.85 20.825zM75.763.108c-6.311-.61-12.622 1.377-17.308 5.413a21.576 21.576 0 00-5.438 7.22 20.777 20.777 0 00-1.925 8.712c0 10.092 7.459 18.93 17.85 20.825-2.104 5.077-5.419 10.092-9.85 14.923-1.402 1.53-1.593 3.73-.446 5.443.893 1.346 2.359 2.08 3.953 2.08.446 0 .892-.03 1.339-.184 9.37-2.63 31.269-11.956 31.874-41.863v-.428c0-11.345-8.701-21.009-20.049-22.14z" fill="#fff"/></svg></svg>