<svg width="10" height="9" fill="none" xmlns="http://www.w3.org/2000/svg"><path d="M4.992 8.96c-.637 0-1.224-.11-1.763-.329a4.257 4.257 0 0 1-1.4-.92 4.192 4.192 0 0 1-.92-1.394 4.705 4.705 0 0 1-.323-1.758c0-.637.11-1.223.328-1.758.219-.539.525-1.006.92-1.4a4.257 4.257 0 0 1 1.4-.92A4.63 4.63 0 0 1 4.992.153c.613 0 1.186.11 1.717.334a4.277 4.277 0 0 1 1.406.925c.403.395.717.86.944 1.395.226.535.34 1.119.34 1.752a4.63 4.63 0 0 1-.329 1.758A4.178 4.178 0 0 1 6.744 8.63a4.587 4.587 0 0 1-1.752.328Zm.188-1.723c-.79 0-1.383-.243-1.782-.727-.398-.488-.597-1.139-.597-1.951 0-.52.094-.979.281-1.377a2.21 2.21 0 0 1 .826-.943c.363-.23.803-.346 1.319-.346a3.32 3.32 0 0 1 1.482.357l-.328.68A2.835 2.835 0 0 0 5.8 2.7a2.042 2.042 0 0 0-.563-.082c-.496 0-.88.174-1.154.522-.273.344-.41.816-.41 1.418 0 .625.123 1.105.369 1.441.25.336.643.504 1.178.504.195 0 .404-.025.627-.076.226-.05.441-.117.644-.2v.716a3.949 3.949 0 0 1-.592.21 2.794 2.794 0 0 1-.72.083Zm-.188 1.125c.52 0 1.006-.094 1.46-.282a3.673 3.673 0 0 0 1.2-.79 3.767 3.767 0 0 0 1.102-2.731c0-.524-.094-1.014-.281-1.47a3.776 3.776 0 0 0-.78-1.214 3.548 3.548 0 0 0-1.195-.82A3.728 3.728 0 0 0 4.992.756c-.547 0-1.05.094-1.512.281A3.564 3.564 0 0 0 1.5 3.041c-.184.461-.275.967-.275 1.518 0 .523.091 1.015.275 1.476.184.457.443.862.78 1.213.34.348.738.621 1.195.82.46.196.966.294 1.517.294Z" fill="#fff"/></svg>