<svg width="67" height="67" fill="none" xmlns="http://www.w3.org/2000/svg"><circle cx="33.5" cy="35.5" r="18.5" fill="#fff"/><mask id="b" fill="#fff"><path fill-rule="evenodd" clip-rule="evenodd" d="M33.5 67C52.002 67 67 52.002 67 33.5 67 14.998 52.002 0 33.5 0 14.998 0 0 14.998 0 33.5 0 52.002 14.998 67 33.5 67Zm13.819-35.998c1.786 1.186 1.786 3.81 0 4.997L29.37 47.925c-1.994 1.325-4.66-.104-4.66-2.498V21.573c0-2.393 2.666-3.823 4.66-2.498l17.948 11.927Z"/></mask><g filter="url(#a)"><path fill-rule="evenodd" clip-rule="evenodd" d="M33.5 67C52.002 67 67 52.002 67 33.5 67 14.998 52.002 0 33.5 0 14.998 0 0 14.998 0 33.5 0 52.002 14.998 67 33.5 67Zm13.819-35.998c1.786 1.186 1.786 3.81 0 4.997L29.37 47.925c-1.994 1.325-4.66-.104-4.66-2.498V21.573c0-2.393 2.666-3.823 4.66-2.498l17.948 11.927Z" fill="#DA4237"/></g><path d="m47.319 35.999-.553-.833.553.833Zm0-4.998-.553.833.553-.832ZM29.37 47.925l-.554-.832.554.832Zm0-28.85-.554.833.554-.833ZM66 33.5C66 51.45 51.45 66 33.5 66v2C52.554 68 68 52.554 68 33.5h-2ZM33.5 1C51.45 1 66 15.55 66 33.5h2C68 14.446 52.554-1 33.5-1v2ZM1 33.5C1 15.55 15.55 1 33.5 1v-2C14.446-1-1 14.446-1 33.5h2ZM33.5 66C15.55 66 1 51.45 1 33.5h-2C-1 52.554 14.446 68 33.5 68v-2Zm14.372-29.168c2.382-1.583 2.382-5.08 0-6.663l-1.106 1.665a2 2 0 0 1 0 3.332l1.106 1.666ZM29.924 48.758l17.948-11.926-1.106-1.666-17.949 11.927 1.107 1.665Zm-6.214-3.331c0 3.192 3.555 5.098 6.214 3.331l-1.107-1.666c-1.33.884-3.107-.07-3.107-1.665h-2Zm0-23.854v23.854h2V21.573h-2Zm6.214-3.331c-2.659-1.767-6.214.14-6.214 3.331h2c0-1.596 1.778-2.549 3.107-1.665l1.107-1.666Zm17.948 11.927L29.924 18.242l-1.107 1.666 17.949 11.926 1.106-1.665Z" fill="#fff" mask="url(#b)"/><defs><filter id="a" x="0" y="0" width="67" height="67" filterUnits="userSpaceOnUse" color-interpolation-filters="sRGB"><feFlood flood-opacity="0" result="BackgroundImageFix"/><feBlend in="SourceGraphic" in2="BackgroundImageFix" result="shape"/><feColorMatrix in="SourceAlpha" values="0 0 0 0 0 0 0 0 0 0 0 0 0 0 0 0 0 0 127 0" result="hardAlpha"/><feOffset/><feGaussianBlur stdDeviation="7.5"/><feComposite in2="hardAlpha" operator="arithmetic" k2="-1" k3="1"/><feColorMatrix values="0 0 0 0 0 0 0 0 0 0 0 0 0 0 0 0 0 0 0.1 0"/><feBlend in2="shape" result="effect1_innerShadow_194_1709"/></filter></defs></svg>