<svg width="164" height="76" fill="none" xmlns="http://www.w3.org/2000/svg"><path d="M2.695 68.285H.365c-.041-.885.26-1.56.889-2.028.63-.471 1.427-.703 2.394-.703 1.048 0 1.878.29 2.48.871.602.58.903 1.266.903 2.05 0 .345-.078.69-.233 1.034a2.046 2.046 0 0 1-.665.835c.985.517 1.472 1.347 1.472 2.49 0 .93-.342 1.692-1.02 2.281-.68.59-1.656.885-2.928.885-1.136 0-2.034-.3-2.681-.898C.324 74.503 0 73.646 0 72.535h2.298c0 .385.128.694.392.934.26.24.584.358.967.358.415 0 .738-.113.966-.34.233-.227.347-.494.347-.812 0-.308-.114-.571-.347-.798-.232-.227-.556-.34-.966-.34h-.78v-2.1h.752c.31 0 .552-.09.725-.272a.89.89 0 0 0 .26-.63.839.839 0 0 0-.282-.654.993.993 0 0 0-.689-.254c-.25 0-.474.06-.666.181a.532.532 0 0 0-.282.477ZM15.74 74.553h-3.79l-.578 1.252H8.609v-.358l4.641-9.811h1.213l4.596 9.81v.359h-2.731l-.588-1.252Zm-1.897-4.63-1.04 2.43h2.098l-1.058-2.43ZM24.604 68.484h.059l1.632-2.748h2.85v.39l-2.923 4.345 3.27 4.962v.376h-2.95l-1.865-3.152h-.087l-1.851 3.153H19.76v-.377l3.283-4.962-2.936-4.345v-.39h2.863l1.633 2.748ZM37.298 74.553h-3.79l-.579 1.252h-2.763v-.358l4.642-9.811h1.213l4.596 9.81v.359h-2.731l-.588-1.252Zm-1.897-4.63-1.04 2.43h2.098l-1.058-2.43ZM44.93 75.791h-2.644V65.722h4.468c1.15 0 2.043.377 2.69 1.13.648.752.958 1.637.94 2.653 0 .998-.32 1.86-.962 2.59-.643.73-1.532 1.093-2.668 1.093H44.93v2.603Zm-.04-4.89h1.864c.329 0 .593-.144.794-.44.2-.29.305-.634.305-1.029 0-.38-.096-.716-.287-.998a.927.927 0 0 0-.812-.426H44.89v2.894ZM57.843 74.553h-3.789l-.579 1.252h-2.763v-.358l4.642-9.811h1.212l4.596 9.81v.359h-2.73l-.589-1.252Zm-1.892-4.63-1.04 2.43h2.098l-1.058-2.43ZM66.999 65.736h8.417v10.069H72.77v-7.697h-3.123v7.697h-2.644v-10.07h-.005ZM80.965 75.791H78.32V65.722h4.469c1.149 0 2.043.377 2.69 1.13.647.752.957 1.637.94 2.653 0 .998-.32 1.86-.963 2.59-.643.73-1.532 1.093-2.667 1.093h-1.824v2.603Zm-.046-4.89h1.865c.329 0 .593-.144.794-.44.2-.29.305-.634.305-1.029 0-.38-.096-.716-.287-.998a.927.927 0 0 0-.812-.426H80.92v2.894ZM94.644 70.612l-5.321 5.22h-.78V65.736h2.645v4.921l5.275-4.962h.825v10.11h-2.644v-5.193ZM103.827 68.08l-.392 4.618c-.087.98-.269 1.7-.543 2.173-.273.471-.702.775-1.286.911-.583.14-1.354.127-2.307-.036l.046-1.887c.56.05.925-.009 1.108-.172.178-.163.296-.522.355-1.08l.712-6.876h7.145v10.07h-2.631v-7.725h-2.207v.005ZM117.866 65.736v2.286h-3.675v1.438h3.383v2.3h-3.383V73.4h3.803v2.404h-6.448v-10.07h6.32ZM120.538 65.736h8.417v10.069h-2.645v-7.697h-3.123v7.697h-2.645v-10.07h-.004ZM137.946 70.612l-5.321 5.22h-.779V65.736h2.644v4.921l5.276-4.962h.825v10.11h-2.645v-5.193ZM151.917 75.805h-2.645v-4.028h-3.137v4.028h-2.644v-10.07h2.644v3.638h3.137v-3.637h2.645v10.069ZM160.681 74.553h-3.789l-.58 1.252h-2.763v-.358l4.642-9.811h1.213l4.596 9.81v.359h-2.731l-.588-1.252Zm-1.897-4.63-1.04 2.43h2.098l-1.058-2.43ZM2.736 4.826v1.188h1.691c1.067 0 1.884.263 2.444.794.566.53.844 1.216.844 2.06 0 .852-.287 1.564-.857 2.14-.575.576-1.382.862-2.43.862H.387V2.74H6.98v2.086H2.736Zm1.678 3.17H2.736v1.787h1.678c.305 0 .542-.09.716-.267a.89.89 0 0 0 .255-.63.87.87 0 0 0-.255-.636c-.17-.172-.406-.254-.716-.254ZM13.082 4.867l-.356 4.186c-.078.89-.242 1.542-.493 1.969-.25.426-.638.703-1.167.83s-1.226.113-2.093-.032l.041-1.71c.506.045.84-.009 1.003-.159.16-.15.27-.471.32-.98l.643-6.231h6.474v9.13H15.07V4.867h-1.988ZM25.406 10.736h-3.433l-.525 1.134h-2.503v-.327l4.209-8.894h1.103l4.168 8.894v.327h-2.476l-.543-1.134Zm-1.719-4.2-.944 2.204h1.902l-.958-2.204ZM35.633 4.826h-3.328v7.044H29.92V2.74h5.718v2.086h-.005ZM46.239 7.302c0 1.393-.438 2.527-1.318 3.411-.88.885-2.01 1.325-3.401 1.325-.62 0-1.209-.1-1.765-.3a4.632 4.632 0 0 1-1.495-.875c-.443-.381-.794-.88-1.05-1.492-.254-.613-.387-1.302-.387-2.069 0-1.006.233-1.877.693-2.612.465-.735 1.05-1.275 1.751-1.62a5.133 5.133 0 0 1 2.29-.516c.592 0 1.166.104 1.723.308a4.813 4.813 0 0 1 1.495.88c.443.38.794.88 1.063 1.492.264.617.401 1.306.401 2.068Zm-7.017 0c0 .776.228 1.38.68 1.82.455.44.998.657 1.627.657.62 0 1.163-.218 1.618-.658.461-.44.689-1.043.689-1.819 0-.775-.228-1.378-.684-1.818a2.23 2.23 0 0 0-1.6-.658c-.648 0-1.2.213-1.65.644-.452.43-.68 1.043-.68 1.832ZM49.75 4.826h-2.257V2.74h6.816v2.086h-2.243v7.044h-2.32V4.826h.004ZM63.164 5.506c0 .286-.068.576-.21.867-.14.29-.323.526-.551.712.37.181.647.449.843.793.196.35.297.735.297 1.162 0 .807-.256 1.474-.766 1.995-.511.522-1.227.785-2.143.785h-4.419V2.703h4.054c.857 0 1.555.259 2.093.771.533.508.802 1.189.802 2.032Zm-3.068-.73h-1.482V6.3h1.482c.219 0 .387-.068.51-.209a.798.798 0 0 0 .196-.508.822.822 0 0 0-.177-.567c-.123-.163-.301-.24-.53-.24Zm.355 3.456h-1.837v1.515h1.846c.42 0 .657-.236.707-.703a.742.742 0 0 0-.178-.567.647.647 0 0 0-.538-.245ZM74.623 7.302c0 1.393-.438 2.527-1.318 3.411-.88.885-2.011 1.325-3.402 1.325-.62 0-1.208-.1-1.764-.3a4.633 4.633 0 0 1-1.496-.875c-.442-.381-.793-.88-1.049-1.492-.26-.613-.387-1.302-.387-2.069 0-1.006.232-1.877.693-2.612.465-.735 1.049-1.275 1.75-1.62a5.132 5.132 0 0 1 2.29-.516c.593 0 1.167.104 1.723.308a4.813 4.813 0 0 1 1.496.88c.442.38.793.88 1.062 1.492.27.617.401 1.306.401 2.068Zm-7.013 0c0 .776.228 1.38.68 1.82.455.44.998.657 1.627.657.62 0 1.163-.218 1.619-.658.46-.44.688-1.043.688-1.819 0-.775-.228-1.378-.684-1.818a2.23 2.23 0 0 0-1.6-.658c-.648 0-1.2.213-1.65.644-.457.43-.68 1.043-.68 1.832ZM79.173 11.856h-2.398v-9.13h4.053c1.04 0 1.851.34 2.44 1.025.583.68.87 1.483.852 2.404 0 .903-.292 1.687-.87 2.35-.584.662-1.387.988-2.417.988h-1.65v2.363h-.01Zm-.041-4.436h1.692c.296 0 .538-.131.72-.399.182-.263.274-.576.274-.934 0-.35-.087-.649-.26-.907a.833.833 0 0 0-.734-.386h-1.692V7.42ZM91.575 7.162l-4.824 4.735h-.707V2.74h2.399v4.458l4.787-4.5h.748v9.167H91.58V7.162h-.005ZM98.114 4.826h-2.257V2.74h6.816v2.086h-2.243v7.044h-2.32V4.826h.004ZM110.292 2.74v2.072h-3.328V6.12h3.068v2.086h-3.068v1.488h3.447v2.177h-5.85V2.74h5.731ZM116.024 4.867l-.356 4.186c-.077.89-.241 1.542-.492 1.969-.251.426-.639.703-1.167.83-.529.127-1.227.113-2.093-.032l.041-1.71c.506.045.839-.009 1.003-.159.164-.15.269-.471.324-.98l.642-6.231h6.475v9.13h-2.385V4.867h-1.992ZM125.357 2.74v2.726h1.692c.474 0 .903.072 1.299.213.393.145.721.34.976.585.26.25.474.53.657.853.178.322.287.657.328 1.011.041.354.041.703 0 1.057s-.146.69-.328 1.011a3.467 3.467 0 0 1-.657.853c-.26.25-.583.444-.976.594-.392.15-.825.222-1.299.222h-4.026v-9.13h2.334v.005Zm1.692 4.826h-1.692V9.77c.123 0 .297 0 .525.004.228.005.437.005.629.005.191 0 .369-.005.538-.014a.95.95 0 0 0 .643-.226.912.912 0 0 0 .314-.554 1.81 1.81 0 0 0-.013-.644.998.998 0 0 0-.324-.549.9.9 0 0 0-.62-.226ZM139.898 11.87H137.5V8.219h-2.846v3.65h-2.398V2.74h2.398v3.303h2.846V2.74h2.398v9.13ZM144.854 2.74v2.726h1.692c.474 0 .903.072 1.299.213.392.145.721.34.976.585.26.25.474.53.657.853.177.322.287.657.328 1.011.041.354.041.703 0 1.057s-.146.69-.328 1.011a3.467 3.467 0 0 1-.657.853c-.26.25-.584.444-.976.594-.392.15-.825.222-1.299.222h-4.026v-9.13h2.334v.005Zm1.692 4.826h-1.692V9.77c.123 0 .297 0 .525.004.228.005.437.005.629.005.191 0 .369-.005.538-.014a.953.953 0 0 0 .643-.226.912.912 0 0 0 .314-.554 1.81 1.81 0 0 0-.013-.644.998.998 0 0 0-.324-.549.91.91 0 0 0-.62-.226Zm6.894-4.826v9.13h-2.385V2.74h2.385ZM156.062 11.893V2.735h2.398v4.459l4.788-4.5h.747v9.167h-2.398V7.153l-4.824 4.735h-.711v.005Zm2.767-10.179c.374.363.903.54 1.587.54.698 0 1.236-.181 1.605-.54.37-.358.57-.889.597-1.582A29.108 29.108 0 0 0 161.319 0c-.068.463-.378.69-.93.69-.543 0-.825-.232-.853-.69l-1.299.132c.018.693.214 1.224.592 1.582ZM16.264 55.571V52.27c-4.619-.158-8.417-1.397-11.399-3.705C1.883 46.25.392 42.958.392 38.684c0-4.272 1.482-7.574 4.45-9.905 2.964-2.327 6.758-3.588 11.377-3.778v-3.157h8.225V25c4.779.19 8.609 1.406 11.495 3.637 2.886 2.232 4.327 5.584 4.327 10.047 0 3.03-.739 5.574-2.212 7.633-1.477 2.06-3.36 3.543-5.654 4.45-2.293.907-4.96 1.41-8.01 1.506v3.302h-8.126v-.005Zm-7.072-16.89c0 3.828 2.39 5.9 7.168 6.218V32.507c-4.779.19-7.168 2.25-7.168 6.173Zm22.274 0c0-3.924-2.39-5.983-7.168-6.174V44.9c4.779-.318 7.168-2.39 7.168-6.219ZM79.428 38.73c0 5.103-1.61 9.276-4.833 12.514-3.224 3.239-7.382 4.858-12.484 4.858-2.275 0-4.432-.367-6.47-1.102a17.157 17.157 0 0 1-5.485-3.207c-1.619-1.401-2.905-3.23-3.849-5.48-.944-2.249-1.418-4.775-1.418-7.583 0-3.7.848-6.898 2.55-9.593 1.7-2.694 3.838-4.672 6.419-5.932 2.58-1.261 5.38-1.892 8.394-1.892 2.18 0 4.29.377 6.324 1.125a17.605 17.605 0 0 1 5.486 3.23c1.618 1.405 2.918 3.229 3.898 5.479.98 2.245 1.468 4.776 1.468 7.583Zm-25.734 0c0 2.84.834 5.067 2.499 6.677 1.668 1.61 3.656 2.417 5.964 2.417 2.275 0 4.258-.807 5.94-2.417 1.683-1.61 2.527-3.837 2.527-6.677 0-2.84-.835-5.062-2.503-6.676-1.67-1.61-3.625-2.418-5.869-2.418-2.37 0-4.395.79-6.06 2.368-1.664 1.583-2.498 3.823-2.498 6.726ZM130.095 48.06h1.249c1.249-.032 2.102-.34 2.549-.934.447-.59.77-1.701.962-3.325l2.549-21.821h23.231v26.076H164v11.339h-7.118V55.47h-20.108v3.924h-6.684V48.06h.005Zm14.955-18.564-1.536 14.595c-.16 2.073-.675 3.461-1.542 4.164h9.908v-18.76h-6.83Z" fill="#1F1F1F"/><path d="m92.136 44.336 12.024-11.262H92.136V21.98h-8.084v33.496h8.084v-11.14ZM117.387 21.98v11.094l-12.024 11.262h12.024v11.14h8.08V21.98h-8.08Z" fill="#ED1C24"/></svg>