<svg width="360" height="168" fill="none" xmlns="http://www.w3.org/2000/svg"><path d="M5.91 150.55H.8c-.09-1.95.57-3.44 1.95-4.47 1.38-1.04 3.13-1.55 5.25-1.55 2.3 0 4.12.64 5.44 1.92 1.32 1.28 1.98 2.79 1.98 4.52 0 .76-.17 1.52-.51 2.28-.34.76-.82 1.37-1.46 1.84 2.16 1.14 3.23 2.97 3.23 5.49 0 2.05-.75 3.73-2.24 5.03-1.49 1.3-3.63 1.95-6.42 1.95-2.49 0-4.46-.66-5.88-1.98C.71 164.26 0 162.37 0 159.92h5.04c0 .85.28 1.53.86 2.06.57.53 1.28.79 2.12.79.91 0 1.62-.25 2.12-.75.51-.5.76-1.09.76-1.79 0-.68-.25-1.26-.76-1.76s-1.22-.75-2.12-.75H6.31v-4.63h1.65c.68 0 1.21-.2 1.59-.6.38-.4.57-.87.57-1.39 0-.59-.21-1.07-.62-1.44-.41-.37-.91-.56-1.51-.56-.55 0-1.04.13-1.46.4-.41.25-.62.6-.62 1.05ZM34.52 164.37h-8.31l-1.27 2.76h-6.06v-.79l10.18-21.63h2.66l10.08 21.63v.79h-5.99l-1.29-2.76Zm-4.16-10.21-2.28 5.36h4.6l-2.32-5.36ZM53.96 150.99h.13l3.58-6.06h6.25v.86l-6.41 9.58 7.17 10.94v.83h-6.47l-4.09-6.95h-.19l-4.06 6.95h-6.53v-.83l7.2-10.94-6.44-9.58v-.86h6.28l3.58 6.06ZM81.8 164.37h-8.31l-1.27 2.76h-6.06v-.79l10.18-21.63H79l10.08 21.63v.79h-5.99l-1.29-2.76Zm-4.16-10.21-2.28 5.36h4.6l-2.32-5.36ZM98.54 167.1h-5.8v-22.2h9.8c2.52 0 4.48.83 5.9 2.49 1.42 1.66 2.1 3.61 2.06 5.85 0 2.2-.7 4.1-2.11 5.71-1.41 1.61-3.36 2.41-5.85 2.41h-4v5.74Zm-.09-10.78h4.09c.72 0 1.3-.32 1.74-.97.44-.64.67-1.4.67-2.27 0-.84-.21-1.58-.63-2.2-.42-.62-1.01-.94-1.78-.94h-4.09v6.38ZM126.86 164.37h-8.31l-1.27 2.76h-6.06v-.79l10.18-21.63h2.66l10.08 21.63v.79h-5.99l-1.29-2.76Zm-4.15-10.21-2.28 5.36h4.6l-2.32-5.36ZM146.94 144.93h18.46v22.2h-5.8v-16.97h-6.85v16.97h-5.8v-22.2h-.01ZM177.57 167.1h-5.8v-22.2h9.8c2.52 0 4.48.83 5.9 2.49 1.42 1.66 2.1 3.61 2.06 5.85 0 2.2-.7 4.1-2.11 5.71-1.41 1.61-3.36 2.41-5.85 2.41h-4v5.74Zm-.1-10.78h4.09c.72 0 1.3-.32 1.74-.97.44-.64.67-1.4.67-2.27 0-.84-.21-1.58-.63-2.2-.42-.62-1.01-.94-1.78-.94h-4.09v6.38ZM207.57 155.68l-11.67 11.51h-1.71v-22.26h5.8v10.85l11.57-10.94h1.81v22.29h-5.8v-11.45ZM227.71 150.1l-.86 10.18c-.19 2.16-.59 3.75-1.19 4.79s-1.54 1.71-2.82 2.01c-1.28.31-2.97.28-5.06-.08l.1-4.16c1.23.11 2.03-.02 2.43-.38.39-.36.65-1.15.78-2.38l1.56-15.16h15.67v22.2h-5.77v-17.03h-4.84v.01ZM258.5 144.93v5.04h-8.06v3.17h7.42v5.07h-7.42v3.62h8.34v5.3h-14.14v-22.2h13.86ZM264.36 144.93h18.46v22.2h-5.8v-16.97h-6.85v16.97h-5.8v-22.2h-.01ZM302.54 155.68l-11.67 11.51h-1.71v-22.26h5.8v10.85l11.57-10.94h1.81v22.29h-5.8v-11.45ZM333.18 167.13h-5.8v-8.88h-6.88v8.88h-5.8v-22.2h5.8v8.02h6.88v-8.02h5.8v22.2ZM352.4 164.37h-8.31l-1.27 2.76h-6.06v-.79l10.18-21.63h2.66l10.08 21.63v.79h-5.99l-1.29-2.76Zm-4.16-10.21-2.28 5.36h4.6l-2.32-5.36ZM6 10.64v2.62h3.71c2.34 0 4.13.58 5.36 1.75 1.24 1.17 1.85 2.68 1.85 4.54 0 1.88-.63 3.45-1.88 4.72-1.26 1.27-3.03 1.9-5.33 1.9H.85V6.04h14.46v4.6H6Zm3.68 6.99H6v3.94h3.68c.67 0 1.19-.2 1.57-.59.37-.39.56-.86.56-1.39 0-.56-.19-1.02-.56-1.4-.37-.38-.89-.56-1.57-.56ZM28.69 10.73l-.78 9.23c-.17 1.96-.53 3.4-1.08 4.34s-1.4 1.55-2.56 1.83c-1.16.28-2.69.25-4.59-.07l.09-3.77c1.11.1 1.84-.02 2.2-.35.35-.33.59-1.04.7-2.16l1.41-13.74h14.2v20.13h-5.23V10.73h-4.36ZM55.72 23.67h-7.53l-1.15 2.5h-5.49v-.72l9.23-19.61h2.42l9.14 19.61v.72h-5.43l-1.19-2.5Zm-3.77-9.26-2.07 4.86h4.17l-2.1-4.86ZM78.15 10.64h-7.3v15.53h-5.23V6.04h12.54v4.6h-.01ZM101.41 16.1c0 3.07-.96 5.57-2.89 7.52-1.93 1.95-4.41 2.92-7.46 2.92-1.36 0-2.65-.22-3.87-.66-1.22-.44-2.31-1.08-3.28-1.93-.97-.84-1.74-1.94-2.3-3.29-.56-1.35-.85-2.87-.85-4.56 0-2.22.51-4.14 1.52-5.76 1.02-1.62 2.3-2.81 3.84-3.57 1.54-.76 3.22-1.14 5.02-1.14 1.3 0 2.56.23 3.78.68 1.22.45 2.31 1.1 3.28 1.94.97.84 1.74 1.94 2.33 3.29.58 1.36.88 2.88.88 4.56Zm-15.39 0c0 1.71.5 3.04 1.49 4.01 1 .97 2.19 1.45 3.57 1.45 1.36 0 2.55-.48 3.55-1.45 1.01-.97 1.51-2.3 1.51-4.01s-.5-3.04-1.5-4.01c-1-.97-2.17-1.45-3.51-1.45-1.42 0-2.63.47-3.62 1.42-.99.95-1.49 2.3-1.49 4.04ZM109.11 10.64h-4.95v-4.6h14.95v4.6h-4.92v15.53h-5.09V10.64h.01ZM138.53 12.14c0 .63-.15 1.27-.46 1.91-.31.64-.71 1.16-1.21 1.57.81.4 1.42.99 1.85 1.75.43.77.65 1.62.65 2.56 0 1.78-.56 3.25-1.68 4.4-1.12 1.15-2.69 1.73-4.7 1.73h-9.69V5.96h8.89c1.88 0 3.41.57 4.59 1.7 1.17 1.12 1.76 2.62 1.76 4.48Zm-6.73-1.61h-3.25v3.36h3.25c.48 0 .85-.15 1.12-.46.27-.31.41-.68.43-1.12.02-.48-.11-.9-.39-1.25-.27-.36-.66-.53-1.16-.53Zm.78 7.62h-4.03v3.34h4.05c.92 0 1.44-.52 1.55-1.55.04-.48-.09-.9-.39-1.25-.29-.37-.69-.54-1.18-.54ZM163.66 16.1c0 3.07-.96 5.57-2.89 7.52-1.93 1.95-4.41 2.92-7.46 2.92-1.36 0-2.65-.22-3.87-.66-1.22-.44-2.31-1.08-3.28-1.93-.97-.84-1.74-1.94-2.3-3.29-.57-1.35-.85-2.87-.85-4.56 0-2.22.51-4.14 1.52-5.76 1.02-1.62 2.3-2.81 3.84-3.57 1.54-.76 3.22-1.14 5.02-1.14 1.3 0 2.56.23 3.78.68 1.22.45 2.31 1.1 3.28 1.94.97.84 1.74 1.94 2.33 3.29.59 1.36.88 2.88.88 4.56Zm-15.38 0c0 1.71.5 3.04 1.49 4.01 1 .97 2.19 1.45 3.57 1.45 1.36 0 2.55-.48 3.55-1.45 1.01-.97 1.51-2.3 1.51-4.01s-.5-3.04-1.5-4.01c-1-.97-2.17-1.45-3.51-1.45-1.42 0-2.63.47-3.62 1.42-1 .95-1.49 2.3-1.49 4.04ZM173.64 26.14h-5.26V6.01h8.89c2.28 0 4.06.75 5.35 2.26 1.28 1.5 1.91 3.27 1.87 5.3 0 1.99-.64 3.72-1.91 5.18-1.28 1.46-3.04 2.18-5.3 2.18h-3.62v5.21h-.02Zm-.09-9.78h3.71c.65 0 1.18-.29 1.58-.88.4-.58.6-1.27.6-2.06 0-.77-.19-1.43-.57-2-.38-.57-.92-.85-1.61-.85h-3.71v5.79ZM200.84 15.79l-10.58 10.44h-1.55V6.04h5.26v9.83l10.5-9.92h1.64v20.21h-5.26V15.79h-.01ZM215.18 10.64h-4.95v-4.6h14.95v4.6h-4.92v15.53h-5.09V10.64h.01ZM241.89 6.04v4.57h-7.3v2.88h6.73v4.6h-6.73v3.28h7.56v4.8h-12.83V6.04h12.57ZM254.46 10.73l-.78 9.23c-.17 1.96-.53 3.4-1.08 4.34s-1.4 1.55-2.56 1.83c-1.16.28-2.69.25-4.59-.07l.09-3.77c1.11.1 1.84-.02 2.2-.35.36-.33.59-1.04.71-2.16l1.41-13.74h14.2v20.13h-5.23V10.73h-4.37ZM274.93 6.04v6.01h3.71c1.04 0 1.98.16 2.85.47.86.32 1.58.75 2.14 1.29.57.55 1.04 1.17 1.44 1.88.39.71.63 1.45.72 2.23.09.78.09 1.55 0 2.33s-.32 1.52-.72 2.23c-.39.71-.87 1.34-1.44 1.88-.57.55-1.28.98-2.14 1.31-.86.33-1.81.49-2.85.49h-8.83V6.03h5.12v.01Zm3.71 10.64h-3.71v4.86c.27 0 .65 0 1.15.01.5.01.96.01 1.38.01.42 0 .81-.01 1.18-.03.56 0 1.03-.17 1.41-.5.38-.33.61-.74.69-1.22.07-.48.07-.95-.03-1.42s-.33-.87-.71-1.21c-.37-.33-.82-.5-1.36-.5ZM306.82 26.17h-5.26v-8.05h-6.24v8.05h-5.26V6.04h5.26v7.28h6.24V6.04h5.26v20.13ZM317.69 6.04v6.01h3.71c1.04 0 1.98.16 2.85.47.86.32 1.58.75 2.14 1.29.57.55 1.04 1.17 1.44 1.88.39.71.63 1.45.72 2.23.09.78.09 1.55 0 2.33s-.32 1.52-.72 2.23c-.39.71-.87 1.34-1.44 1.88-.57.55-1.28.98-2.14 1.31-.86.33-1.81.49-2.85.49h-8.83V6.03h5.12v.01Zm3.71 10.64h-3.71v4.86c.27 0 .65 0 1.15.01.5.01.96.01 1.38.01.42 0 .81-.01 1.18-.03.56 0 1.03-.17 1.41-.5.38-.33.61-.74.69-1.22.07-.48.07-.95-.03-1.42s-.33-.87-.71-1.21c-.37-.33-.83-.5-1.36-.5Zm15.12-10.64v20.13h-5.23V6.04h5.23ZM342.27 26.22V6.03h5.26v9.83l10.5-9.92h1.64v20.21h-5.26V15.77l-10.58 10.44h-1.56v.01Zm6.07-22.44c.82.8 1.98 1.19 3.48 1.19 1.53 0 2.71-.4 3.52-1.19.81-.79 1.25-1.96 1.31-3.49-1.29-.15-2.23-.25-2.85-.29-.15 1.02-.83 1.52-2.04 1.52-1.19 0-1.81-.51-1.87-1.52l-2.85.29c.04 1.53.47 2.7 1.3 3.49ZM35.67 122.52v-7.28c-10.13-.35-18.46-3.08-25-8.17C4.13 101.97.86 94.71.86 85.29c0-9.42 3.25-16.7 9.76-21.84 6.5-5.13 14.82-7.91 24.95-8.33v-6.96h18.04v6.96c10.48.42 18.88 3.1 25.21 8.02 6.33 4.92 9.49 12.31 9.49 22.15 0 6.68-1.62 12.29-4.85 16.83-3.24 4.54-7.37 7.81-12.4 9.81-5.03 2-10.88 3.11-17.57 3.32v7.28H35.67v-.01ZM20.16 85.28c0 8.44 5.24 13.01 15.72 13.71V71.67c-10.48.42-15.72 4.96-15.72 13.61Zm48.85 0c0-8.65-5.24-13.19-15.72-13.61v27.32c10.48-.7 15.72-5.27 15.72-13.71ZM174.2 85.39c0 11.25-3.53 20.45-10.6 27.59-7.07 7.14-16.19 10.71-27.38 10.71-4.99 0-9.72-.81-14.19-2.43-4.47-1.62-8.48-3.97-12.03-7.07-3.55-3.09-6.37-7.12-8.44-12.08-2.07-4.96-3.11-10.53-3.11-16.72 0-8.16 1.86-15.21 5.59-21.15 3.73-5.94 8.42-10.3 14.08-13.08 5.66-2.78 11.8-4.17 18.41-4.17 4.78 0 9.41.83 13.87 2.48 4.47 1.65 8.47 4.03 12.03 7.12 3.55 3.1 6.4 7.12 8.55 12.08 2.15 4.95 3.22 10.53 3.22 16.72Zm-56.44 0c0 6.26 1.83 11.17 5.48 14.72 3.66 3.55 8.02 5.33 13.08 5.33 4.99 0 9.34-1.78 13.03-5.33 3.69-3.55 5.54-8.46 5.54-14.72s-1.83-11.16-5.49-14.72c-3.66-3.55-7.95-5.33-12.87-5.33-5.2 0-9.64 1.74-13.29 5.22-3.65 3.49-5.48 8.43-5.48 14.83ZM285.32 105.96h2.74c2.74-.07 4.61-.75 5.59-2.06.98-1.3 1.69-3.75 2.11-7.33l5.59-48.11h50.95v57.49h7.38v25h-15.61v-8.65h-44.1v8.65h-14.66v-24.99h.01Zm32.8-40.93-3.37 32.18c-.35 4.57-1.48 7.63-3.38 9.18h21.73V65.03h-14.98Z" fill="#fff"/><path d="m202.07 97.75 26.37-24.83h-26.37V48.46h-17.73v73.85h17.73V97.75ZM257.45 48.46v24.46l-26.37 24.83h26.37v24.56h17.72V48.46h-17.72Z" fill="#ED1C24"/></svg>