<?xml version="1.0" standalone="no"?>
<!DOCTYPE svg PUBLIC "-//W3C//DTD SVG 20010904//EN"
 "http://www.w3.org/TR/2001/REC-SVG-20010904/DTD/svg10.dtd">
<svg version="1.0" xmlns="http://www.w3.org/2000/svg"
 width="700.000000pt" height="700.000000pt" viewBox="0 0 700.000000 700.000000"
 preserveAspectRatio="xMidYMid meet">
<metadata>
Created by potrace 1.14, written by Peter Selinger 2001-2017
</metadata>
<g transform="translate(0.000000,700.000000) scale(0.100000,-0.100000)"
fill="#000000" stroke="none">
<path d="M0 3500 l0 -3500 705 0 705 0 0 1200 0 1201 1040 1152 c572 633 1040
1155 1040 1159 0 5 -468 8 -1040 8 l-1040 0 0 1140 0 1140 -705 0 -705 0 0
-3500z"/>
<path d="M5530 5856 l0 -1145 -1012 -1153 -1011 -1153 1011 -3 1012 -2 0 -108
c0 -59 -11 -566 -25 -1127 -14 -561 -25 -1053 -25 -1092 l0 -73 760 0 760 0 0
3500 0 3500 -735 0 -735 0 0 -1144z"/>
</g>
</svg>
