<svg width="396" height="307" viewBox="0 0 396 307" fill="none" xmlns="http://www.w3.org/2000/svg">
<g opacity="0.5">
<path d="M310.969 61.1601C311.015 60.3766 311.015 59.5931 311.015 58.8096C311.015 27.2847 284.421 0 251.652 0C227.686 0 207.038 15.4398 197.682 35.0737C188.326 15.3937 167.678 0 143.712 0C110.942 0 84.349 27.3308 84.349 58.8096C84.349 59.5931 84.3951 60.3766 84.3951 61.1601C84.3951 61.1601 81.0306 98.5844 122.695 139.465C141.638 158.454 162.839 176.475 197.682 204.82C232.525 176.475 253.726 158.454 272.669 139.465C314.333 98.6305 310.969 61.1601 310.969 61.1601Z" fill="white"/>
<path d="M53.0087 201.732C53.0087 201.732 40.8873 177.489 33.0982 170.99C25.3092 164.492 28.7659 155.412 43.0535 157.578C57.3411 159.745 76.8367 185.278 86.3772 196.984C95.9176 208.691 106.749 209.567 106.749 209.567C141.822 214.775 152.146 217.264 171.319 247.544C195.977 286.535 177.403 304.695 151.409 302.989C125.415 301.238 111.588 288.287 111.588 288.287C111.588 288.287 74.7166 265.012 60.429 258.513C46.1414 252.015 14.5244 185.739 7.15011 167.995C-0.224132 150.25 5.39872 87.0161 15.8148 87.4309C26.231 87.8457 31.8538 93.9294 31.8538 116.882C31.8538 139.834 34.02 150.665 34.02 150.665" stroke="white" stroke-width="7" stroke-miterlimit="10" stroke-linecap="round" stroke-linejoin="round"/>
<path d="M342.356 201.732C342.356 201.732 354.477 177.489 362.266 170.99C370.055 164.492 366.598 155.412 352.311 157.578C338.023 159.745 318.527 185.278 308.987 196.985C299.447 208.691 288.616 209.567 288.616 209.567C253.542 214.775 243.218 217.264 224.045 247.544C199.387 286.535 217.961 304.695 243.955 302.989C269.95 301.238 283.776 288.287 283.776 288.287C283.776 288.287 320.648 265.012 334.935 258.513C349.223 252.015 380.84 185.739 388.214 167.995C395.588 150.25 389.965 87.0161 379.549 87.4309C369.133 87.8457 363.51 93.9294 363.51 116.882C363.51 139.834 361.344 150.665 361.344 150.665" stroke="white" stroke-width="7" stroke-miterlimit="10" stroke-linecap="round" stroke-linejoin="round"/>
</g>
</svg>
