<svg width="53" height="53" viewBox="0 0 53 53" fill="none" xmlns="http://www.w3.org/2000/svg">
<circle cx="26.5" cy="26.5" r="25.7319" stroke="#DA4237" stroke-width="1.53623"/>
<path d="M35.2908 30.6653C34.7817 31.0292 34.2035 31.3874 33.5511 31.7362C33.5 31.7635 33.4377 31.7635 33.3866 31.7362C29.8643 29.853 28.5051 27.6937 28.5051 25.8667C28.5051 24.2759 29.5178 22.91 30.987 22.91C32.3979 22.91 33.2121 23.8852 33.4172 24.1658C33.4428 24.2009 33.4951 24.2009 33.5207 24.1658C33.7258 23.8852 34.54 22.91 35.9509 22.91C37.4202 22.91 38.4328 24.276 38.4328 25.8667C38.4328 26.9234 37.9781 28.0912 36.9133 29.2525" stroke="#DA4237" stroke-width="0.9375" stroke-miterlimit="10" stroke-linecap="round" stroke-linejoin="round"/>
<path d="M19.1383 31.1368V31.347C19.1383 31.9014 18.6888 32.3509 18.1343 32.3509H16.8433" stroke="#DA4237" stroke-width="0.9375" stroke-miterlimit="10" stroke-linecap="round" stroke-linejoin="round"/>
<path d="M16.7188 29.6626V35.3345C16.7188 35.8608 16.292 36.2876 15.7656 36.2876H13.9219C13.3955 36.2876 12.9688 35.8608 12.9688 35.3345V30.9799" stroke="#DA4237" stroke-width="0.9375" stroke-miterlimit="10" stroke-linecap="round" stroke-linejoin="round"/>
<path d="M20.6663 21.9716C23.0634 20.147 24.1989 18.2188 24.1989 18.2188V35.7812C24.1989 35.7812 21.8319 31.9693 16.7188 29.8382V24.1619C17.4906 23.8715 18.1998 23.5334 18.8478 23.1685" stroke="#DA4237" stroke-width="0.9375" stroke-miterlimit="10" stroke-linecap="round" stroke-linejoin="round"/>
<path d="M16.0413 30.8124H13.3919C11.7775 30.8124 10.4688 29.5038 10.4688 27.8893V26.1105C10.4688 24.4961 11.7774 23.1874 13.3919 23.1874H16.0413C16.4154 23.1874 16.7188 23.4907 16.7188 23.8649V30.1349C16.7188 30.5091 16.4154 30.8124 16.0413 30.8124Z" stroke="#DA4237" stroke-width="0.9375" stroke-miterlimit="10" stroke-linecap="round" stroke-linejoin="round"/>
<path d="M13.4162 28.9374C12.8239 28.9374 12.3438 28.4573 12.3438 27.865V26.1348C12.3438 25.5426 12.8239 25.0624 13.4162 25.0624H13.7714C14.3636 25.0624 14.8438 25.5425 14.8438 26.1348V27.865C14.8438 28.4573 14.3637 28.9374 13.7714 28.9374H13.4162Z" stroke="#DA4237" stroke-width="0.9375" stroke-miterlimit="10" stroke-linecap="round" stroke-linejoin="round"/>
<path d="M25.324 37.5C24.7027 37.5 24.199 36.9963 24.199 36.375V17.625C24.199 17.0037 24.7027 16.5 25.324 16.5C25.9453 16.5 26.449 17.0037 26.449 17.625V36.375C26.449 36.9963 25.9453 37.5 25.324 37.5Z" stroke="#DA4237" stroke-width="0.9375" stroke-miterlimit="10" stroke-linecap="round" stroke-linejoin="round"/>
<path d="M33.4688 18.9375V19.8584" stroke="#DA4237" stroke-width="0.9375" stroke-miterlimit="10" stroke-linecap="round" stroke-linejoin="round"/>
<path d="M33.4688 34.1416V35.0625" stroke="#DA4237" stroke-width="0.9375" stroke-miterlimit="10" stroke-linecap="round" stroke-linejoin="round"/>
<path d="M29.4375 20.0177L29.8979 20.8152" stroke="#DA4237" stroke-width="0.9375" stroke-miterlimit="10" stroke-linecap="round" stroke-linejoin="round"/>
<path d="M37.0396 33.1848L37.5 33.9823" stroke="#DA4237" stroke-width="0.9375" stroke-miterlimit="10" stroke-linecap="round" stroke-linejoin="round"/>
<path d="M39.6536 30.5708L40.4511 31.0312" stroke="#DA4237" stroke-width="0.9375" stroke-miterlimit="10" stroke-linecap="round" stroke-linejoin="round"/>
<path d="M40.6104 27H41.5312" stroke="#DA4237" stroke-width="0.9375" stroke-miterlimit="10" stroke-linecap="round" stroke-linejoin="round"/>
<path d="M39.6536 23.4292L40.4511 22.9688" stroke="#DA4237" stroke-width="0.9375" stroke-miterlimit="10" stroke-linecap="round" stroke-linejoin="round"/>
<path d="M29.4375 33.9823L29.8979 33.1848" stroke="#DA4237" stroke-width="0.9375" stroke-miterlimit="10" stroke-linecap="round" stroke-linejoin="round"/>
<path d="M37.0396 20.8152L37.5 20.0177" stroke="#DA4237" stroke-width="0.9375" stroke-miterlimit="10" stroke-linecap="round" stroke-linejoin="round"/>
</svg>
