<svg width="53" height="53" viewBox="0 0 53 53" fill="none" xmlns="http://www.w3.org/2000/svg">
<circle cx="26.5" cy="26.5" r="25.7319" stroke="#DA4237" stroke-width="1.53623"/>
<path d="M28.9362 33.1635C28.1157 33.7804 27.1839 34.3879 26.1325 34.9793C26.0501 35.0256 25.9496 35.0256 25.8673 34.9793C20.1905 31.7862 18 28.125 18 25.0272C18 22.33 19.632 20.014 21.9999 20.014C24.2738 20.014 25.586 21.6675 25.9166 22.1433C25.9579 22.2028 26.0421 22.2028 26.0834 22.1433C26.414 21.6675 27.7262 20.014 30.0001 20.014C32.3681 20.014 34 22.3301 34 25.0272C34 26.8189 33.2673 28.799 31.5511 30.768" stroke="#DA4237" stroke-width="0.9375" stroke-miterlimit="10" stroke-linecap="round" stroke-linejoin="round"/>
<path d="M26.012 14V15.4864" stroke="#DA4237" stroke-width="0.9375" stroke-miterlimit="10" stroke-linecap="round" stroke-linejoin="round"/>
<path d="M26.0121 38.5416V40.0281" stroke="#DA4237" stroke-width="0.9375" stroke-miterlimit="10" stroke-linecap="round" stroke-linejoin="round"/>
<path d="M19.5049 15.7437L20.2481 17.0309" stroke="#DA4237" stroke-width="0.9375" stroke-miterlimit="10" stroke-linecap="round" stroke-linejoin="round"/>
<path d="M31.7759 36.9974L32.5191 38.2847" stroke="#DA4237" stroke-width="0.9375" stroke-miterlimit="10" stroke-linecap="round" stroke-linejoin="round"/>
<path d="M35.9951 32.778L37.2824 33.5212" stroke="#DA4237" stroke-width="0.9375" stroke-miterlimit="10" stroke-linecap="round" stroke-linejoin="round"/>
<path d="M37.5396 27.014H39.026" stroke="#DA4237" stroke-width="0.9375" stroke-miterlimit="10" stroke-linecap="round" stroke-linejoin="round"/>
<path d="M35.9951 21.2503L37.2824 20.5071" stroke="#DA4237" stroke-width="0.9375" stroke-miterlimit="10" stroke-linecap="round" stroke-linejoin="round"/>
<path d="M19.505 38.2847L20.2482 36.9974" stroke="#DA4237" stroke-width="0.9375" stroke-miterlimit="10" stroke-linecap="round" stroke-linejoin="round"/>
<path d="M31.7759 17.0309L32.5191 15.7437" stroke="#DA4237" stroke-width="0.9375" stroke-miterlimit="10" stroke-linecap="round" stroke-linejoin="round"/>
</svg>
