<svg width="96" height="65" viewBox="0 0 96 65" fill="none" xmlns="http://www.w3.org/2000/svg">
<path d="M18.0375 42.2782C15.9337 47.3545 12.6187 52.3695 8.18812 57.2011C6.78562 58.7301 6.59437 60.9319 7.74187 62.6443C8.63437 63.9898 10.1006 64.7237 11.6944 64.7237C12.1406 64.7237 12.5869 64.6932 13.0331 64.5403C22.4044 61.9104 44.3025 52.5836 44.9081 22.6767C45.1312 11.1481 36.3337 1.24029 24.8906 0.108842C18.5475 -0.502752 12.2362 1.48493 7.55062 5.52145C5.23319 7.53771 3.38096 9.9967 2.11291 12.7405C0.844853 15.4842 0.189008 18.4521 0.1875 21.4535C0.1875 31.5448 7.64625 40.3823 18.0375 42.2782ZM75.7631 0.108842C69.4519 -0.502752 63.1406 1.48493 58.455 5.52145C56.1374 7.53759 54.2851 9.99655 53.017 12.7403C51.7489 15.4841 51.0932 18.4521 51.0919 21.4535C51.0919 31.5448 58.5506 40.3823 68.9419 42.2782C66.8381 47.3545 63.5231 52.3695 59.0925 57.2011C57.69 58.7301 57.4987 60.9319 58.6463 62.6443C59.5387 63.9898 61.005 64.7237 62.5988 64.7237C63.045 64.7237 63.4912 64.6932 63.9375 64.5403C73.3088 61.9104 95.2069 52.5836 95.8125 22.6767V22.2485C95.8125 10.9035 87.1106 1.24029 75.7631 0.108842Z" fill="white"/>
</svg>
