<svg width="76" height="76" viewBox="0 0 76 76" fill="none" xmlns="http://www.w3.org/2000/svg">
<g clip-path="url(#clip0_85_1053)">
<path d="M38.0003 76C58.9869 76 76 58.9869 76 38.0003C76 17.0136 58.9869 -0.000176963 38.0003 -0.000178798C17.0136 -0.000180633 -0.000185578 17.0136 -0.000187413 38.0003C0.0235 58.9773 17.0225 75.9765 38.0003 76ZM38.0003 3.80029C56.8885 3.80029 72.2002 19.1119 72.2002 38.0003C72.2002 56.8884 56.8884 72.2002 38.0003 72.2002C19.1119 72.2002 3.80029 56.8884 3.80029 38.0003C3.82184 19.1212 19.1212 3.82184 38.0003 3.80029Z" fill="#DA4237"/>
<path d="M42.4489 52.7303C43.2393 53.4215 44.4395 53.3406 45.1304 52.5508C45.8207 51.7604 45.74 50.5602 44.9502 49.8693L31.3849 38.0003L44.9509 26.1306C45.7414 25.4396 45.8214 24.2394 45.1312 23.4498C44.4402 22.6593 43.24 22.5786 42.4495 23.2695L27.2497 36.5698C27.0458 36.7482 26.8823 36.9681 26.7703 37.2148C26.6583 37.4616 26.6004 37.7294 26.6004 38.0004C26.6004 38.2714 26.6583 38.5392 26.7703 38.7859C26.8823 39.0327 27.0458 39.2526 27.2497 39.431L42.4489 52.7303Z" fill="#DA4237"/>
</g>
<defs>
<clipPath id="clip0_85_1053">
<rect width="76" height="76" fill="white" transform="translate(76 76) rotate(-180)"/>
</clipPath>
</defs>
</svg>
