<svg width="64" height="64" viewBox="0 0 64 64" fill="none" xmlns="http://www.w3.org/2000/svg">
<path d="M0.5 32C0.5 14.603 14.603 0.5 32 0.5C49.397 0.5 63.5 14.603 63.5 32C63.5 49.397 49.397 63.5 32 63.5C14.603 63.5 0.5 49.397 0.5 32Z" stroke="white"/>
<g clip-path="url(#clip0_64_1421)">
<mask id="mask0_64_1421" style="mask-type:luminance" maskUnits="userSpaceOnUse" x="20" y="20" width="24" height="24">
<path d="M44 20H20V44H44V20Z" fill="white"/>
</mask>
<g mask="url(#mask0_64_1421)">
<path d="M42.0517 22.129L20.7888 30.3709C19.9331 30.7547 19.6437 31.5233 20.5819 31.9404L26.0368 33.6829L39.2259 25.4896C39.946 24.9753 40.6833 25.1124 40.0489 25.6782L28.7212 35.9877L28.3654 40.3506C28.695 41.0243 29.2985 41.0274 29.6834 40.6926L32.8174 37.7119L38.1848 41.7519C39.4314 42.4937 40.1097 42.015 40.3779 40.6553L43.8985 23.8989C44.264 22.2252 43.6407 21.4878 42.0517 22.129Z" fill="white"/>
</g>
</g>
<defs>
<clipPath id="clip0_64_1421">
<rect width="24" height="24" fill="white" transform="translate(20 20)"/>
</clipPath>
</defs>
</svg>
