<svg width="64" height="64" viewBox="0 0 64 64" fill="none" xmlns="http://www.w3.org/2000/svg">
<path d="M0.5 32C0.5 14.603 14.603 0.5 32 0.5C49.397 0.5 63.5 14.603 63.5 32C63.5 49.397 49.397 63.5 32 63.5C14.603 63.5 0.5 49.397 0.5 32Z" stroke="white"/>
<g clip-path="url(#clip0_64_1138)">
<path d="M31.7208 31.9632C35.1655 31.9632 37.7151 29.0378 37.7151 25.7425C37.7151 22.4473 35.1655 20 31.7208 20C28.2762 20 25.752 22.6863 25.752 25.9816C25.752 29.2768 28.2762 31.9632 31.7208 31.9632ZM31.7208 23.5102C33.1436 23.5102 34.3043 24.6205 34.3043 25.9816C34.3043 27.3427 33.1436 28.453 31.7208 28.453C30.298 28.453 29.1373 27.3427 29.1373 25.9816C29.1373 24.6205 30.298 23.5102 31.7208 23.5102Z" fill="white"/>
<path d="M34.1773 37.6773C35.3939 37.3904 36.5746 36.924 37.6481 36.2424C38.4711 35.7402 38.7216 34.6281 38.1848 33.8029C37.6839 32.9779 36.5746 32.7267 35.7516 33.2648C33.3185 34.8074 30.134 34.8074 27.7009 33.2648C26.8779 32.7626 25.8046 32.9779 25.2678 33.8029C24.7669 34.6281 24.9816 35.7043 25.8046 36.2424C26.8779 36.924 28.0588 37.3904 29.2753 37.6773L25.9476 41.0136C25.2678 41.6953 25.2678 42.8074 25.9476 43.4889C26.3055 43.8477 26.7348 43.9911 27.2 43.9911C27.6651 43.9911 28.0945 43.8118 28.4523 43.4889L31.7441 40.1886L35.036 43.4889C35.7159 44.1705 36.8251 44.1705 37.5049 43.4889C38.1848 42.8074 38.1848 41.6953 37.5049 41.0136L34.1773 37.6773Z" fill="white"/>
</g>
<defs>
<clipPath id="clip0_64_1138">
<rect width="24" height="24" fill="white" transform="translate(20 20)"/>
</clipPath>
</defs>
</svg>
