<svg width="24" height="24" viewBox="0 0 24 24" fill="none" xmlns="http://www.w3.org/2000/svg">
<path fill-rule="evenodd" clip-rule="evenodd" d="M23.4998 6.5549C23.2249 5.55082 22.4116 4.75872 21.3769 4.4872C19.5063 4 12 4 12 4C12 4 4.49761 4 2.62299 4.4872C1.59208 4.7549 0.778909 5.54713 0.500182 6.5549C7.15256e-07 8.37713 0 12.1818 0 12.1818C0 12.1818 7.15256e-07 15.9863 0.500182 17.8088C0.775091 18.8127 1.58826 19.6049 2.62299 19.8765C4.49761 20.3637 12 20.3637 12 20.3637C12 20.3637 19.5063 20.3637 21.3769 19.8765C22.4078 19.6087 23.2211 18.8165 23.4998 17.8088C24 15.9863 24 12.1818 24 12.1818C24 12.1818 24 8.37713 23.4998 6.5549ZM15.837 12.1818L9.60216 15.6889V8.6747L15.837 12.1818Z" fill="white"/>
</svg>
