<svg width="64" height="64" viewBox="0 0 64 64" fill="none" xmlns="http://www.w3.org/2000/svg">
<path d="M0.5 32C0.5 14.603 14.603 0.5 32 0.5C49.397 0.5 63.5 14.603 63.5 32C63.5 49.397 49.397 63.5 32 63.5C14.603 63.5 0.5 49.397 0.5 32Z" stroke="white"/>
<path fill-rule="evenodd" clip-rule="evenodd" d="M43.4998 26.5549C43.2249 25.5508 42.4116 24.7587 41.3769 24.4872C39.5063 24 32 24 32 24C32 24 24.4976 24 22.623 24.4872C21.5921 24.7549 20.7789 25.5471 20.5002 26.5549C20 28.3771 20 32.1818 20 32.1818C20 32.1818 20 35.9863 20.5002 37.8088C20.7751 38.8127 21.5883 39.6049 22.623 39.8765C24.4976 40.3637 32 40.3637 32 40.3637C32 40.3637 39.5063 40.3637 41.3769 39.8765C42.4078 39.6087 43.2211 38.8165 43.4998 37.8088C44 35.9863 44 32.1818 44 32.1818C44 32.1818 44 28.3771 43.4998 26.5549ZM35.837 32.1818L29.6022 35.6889V28.6747L35.837 32.1818Z" fill="white"/>
</svg>
