<svg width="24" height="24" viewBox="0 0 24 24" fill="none" xmlns="http://www.w3.org/2000/svg">
<path fill-rule="evenodd" clip-rule="evenodd" d="M23.4602 6.53023C23.6384 5.99502 23.4602 5 22.6715 5H20.0843C19.4228 5 19.0837 5.94636 18.9056 6.31128C18.9056 6.31128 17.557 9.42523 15.6741 11.4444C15.0634 12.0283 14.7836 12.2229 14.4527 12.2229C14.2747 12.2229 13.8032 12.0283 13.8032 11.4931L13.8509 6.31128C13.8509 5.67876 13.8421 5 13.2823 5H9.16019C8.75307 5 8.49862 5.87338 8.49862 6.16531C8.49862 6.77351 9.75559 6.51595 9.85737 8.21889V12.3202C9.85737 13.1231 9.38919 13.269 9.05841 13.269C8.16783 13.269 6.00501 10.1307 4.70732 6.55456C4.45287 5.84905 4.19842 5 3.53685 5H0.890573C0.127225 5 0 5.92204 0 6.28696C0 6.9438 0.890575 10.2524 4.14753 14.6314C6.31035 17.6237 9.38919 18.789 12.1627 18.789C13.8421 18.789 14.0457 18.8644 14.0457 18.2562V15.9937C14.0457 15.2639 14.1983 15.1423 14.7326 15.1423C15.1143 15.1423 15.8013 15.3369 17.3534 16.7722C19.1347 18.4751 19.44 18.789 20.4323 18.789H22.5671C23.3305 18.789 24.1727 18.8887 23.9691 18.1832C23.7401 17.4777 22.8751 16.456 21.7555 15.2396C21.1448 14.5584 20.2287 13.8042 19.9488 13.4393C19.5672 12.9528 19.669 12.7581 19.9488 12.3202C19.9234 12.3202 23.1295 7.9899 23.4602 6.53023Z" fill="white"/>
</svg>
