<svg width="64" height="64" viewBox="0 0 64 64" fill="none" xmlns="http://www.w3.org/2000/svg">
<path d="M0.5 32C0.5 14.603 14.603 0.5 32 0.5C49.397 0.5 63.5 14.603 63.5 32C63.5 49.397 49.397 63.5 32 63.5C14.603 63.5 0.5 49.397 0.5 32Z" stroke="white"/>
<path fill-rule="evenodd" clip-rule="evenodd" d="M43.4602 26.5302C43.6384 25.995 43.4602 25 42.6715 25H40.0843C39.4228 25 39.0837 25.9464 38.9056 26.3113C38.9056 26.3113 37.557 29.4252 35.6741 31.4444C35.0634 32.0283 34.7836 32.2229 34.4527 32.2229C34.2747 32.2229 33.8032 32.0283 33.8032 31.4931L33.8509 26.3113C33.8509 25.6788 33.8421 25 33.2823 25H29.1602C28.7531 25 28.4986 25.8734 28.4986 26.1653C28.4986 26.7735 29.7556 26.516 29.8574 28.2189V32.3202C29.8574 33.1231 29.3892 33.269 29.0584 33.269C28.1678 33.269 26.005 30.1307 24.7073 26.5546C24.4529 25.8491 24.1984 25 23.5368 25H20.8906C20.1272 25 20 25.922 20 26.287C20 26.9438 20.8906 30.2524 24.1475 34.6314C26.3104 37.6237 29.3892 38.789 32.1627 38.789C33.8421 38.789 34.0457 38.8644 34.0457 38.2562V35.9937C34.0457 35.2639 34.1983 35.1423 34.7326 35.1423C35.1143 35.1423 35.8013 35.3369 37.3534 36.7722C39.1347 38.4751 39.44 38.789 40.4323 38.789H42.5671C43.3305 38.789 44.1727 38.8887 43.9691 38.1832C43.7401 37.4777 42.8751 36.456 41.7555 35.2396C41.1448 34.5584 40.2287 33.8042 39.9488 33.4393C39.5672 32.9528 39.669 32.7581 39.9488 32.3202C39.9234 32.3202 43.1295 27.9899 43.4602 26.5302Z" fill="white"/>
</svg>
