<svg width="24" height="24" viewBox="0 0 24 24" fill="none" xmlns="http://www.w3.org/2000/svg">
<g clip-path="url(#clip0_36_180)">
<path d="M11.7208 11.9632C15.1655 11.9632 17.7151 9.0378 17.7151 5.74254C17.7151 2.44729 15.1655 0 11.7208 0C8.27617 0 5.75195 2.68634 5.75195 5.9816C5.75195 9.27685 8.27617 11.9632 11.7208 11.9632ZM11.7208 3.51018C13.1436 3.51018 14.3043 4.62048 14.3043 5.9816C14.3043 7.34271 13.1436 8.45301 11.7208 8.45301C10.298 8.45301 9.13733 7.34271 9.13733 5.9816C9.13733 4.62048 10.298 3.51018 11.7208 3.51018Z" fill="white"/>
<path d="M14.1773 17.6773C15.3939 17.3904 16.5746 16.924 17.6481 16.2424C18.4711 15.7402 18.7216 14.6281 18.1848 13.8029C17.6839 12.9779 16.5746 12.7267 15.7516 13.2648C13.3185 14.8074 10.134 14.8074 7.70089 13.2648C6.87789 12.7626 5.80455 12.9779 5.26776 13.8029C4.76685 14.6281 4.98155 15.7043 5.80455 16.2424C6.87789 16.924 8.05875 17.3904 9.27525 17.6773L5.9476 21.0136C5.26776 21.6953 5.26776 22.8074 5.9476 23.4889C6.30546 23.8477 6.73484 23.9911 7.19998 23.9911C7.66513 23.9911 8.09451 23.8118 8.45225 23.4889L11.7441 20.1886L15.036 23.4889C15.7159 24.1705 16.8251 24.1705 17.5049 23.4889C18.1848 22.8074 18.1848 21.6953 17.5049 21.0136L14.1773 17.6773Z" fill="white"/>
</g>
<defs>
<clipPath id="clip0_36_180">
<rect width="24" height="24" fill="white"/>
</clipPath>
</defs>
</svg>
