<svg width="164" height="76" viewBox="0 0 164 76" fill="none" xmlns="http://www.w3.org/2000/svg">
<path d="M2.69473 68.2848H0.36477C0.323734 67.4003 0.624666 66.7245 1.25389 66.2573C1.88312 65.7856 2.68105 65.5543 3.64769 65.5543C4.6964 65.5543 5.52625 65.8446 6.12811 66.4252C6.72998 67.0057 7.03092 67.6906 7.03092 68.4753C7.03092 68.82 6.9534 69.1647 6.79838 69.5094C6.64335 69.8541 6.42449 70.1308 6.13268 70.344C7.11755 70.8611 7.60543 71.6911 7.60543 72.8341C7.60543 73.7639 7.26346 74.5259 6.58407 75.1155C5.90469 75.7052 4.92894 76 3.65681 76C2.52147 76 1.62322 75.7007 0.975756 75.1019C0.323732 74.5032 0 73.646 0 72.5347H2.29805C2.29805 72.9203 2.42572 73.2287 2.69017 73.4691C2.95007 73.7095 3.2738 73.8274 3.65681 73.8274C4.07173 73.8274 4.39546 73.714 4.62344 73.4872C4.85598 73.2605 4.96998 72.9928 4.96998 72.6753C4.96998 72.3669 4.85598 72.1038 4.62344 71.8771C4.3909 71.6503 4.06717 71.5369 3.65681 71.5369H2.87712V69.4369H3.62945C3.9395 69.4369 4.18116 69.3462 4.35443 69.1647C4.52769 68.9833 4.61433 68.7701 4.61433 68.5343C4.61433 68.2667 4.51857 68.0489 4.33163 67.8811C4.14468 67.7133 3.91671 67.6271 3.64313 67.6271C3.39235 67.6271 3.16893 67.6861 2.97742 67.8085C2.79048 67.9219 2.69473 68.0807 2.69473 68.2848Z" fill="#1F1F1F"/>
<path d="M15.7397 74.5531H11.9507L11.3716 75.805H8.60852V75.4466L13.2502 65.636H14.4631L19.0591 75.4466V75.805H16.3279L15.7397 74.5531ZM13.8429 69.9222L12.8034 72.3533H14.9008L13.8429 69.9222Z" fill="#1F1F1F"/>
<path d="M24.6037 68.4844H24.6629L26.2953 65.7357H29.145V66.1258L26.2223 70.471L29.4916 75.433V75.8095H26.5415L24.6766 72.6572H24.59L22.7388 75.8095H19.7614V75.433L23.0443 70.471L20.1079 66.1258V65.7357H22.9713L24.6037 68.4844Z" fill="#1F1F1F"/>
<path d="M37.2976 74.5531H33.5086L32.9295 75.805H30.1664V75.4466L34.8081 65.636H36.0209L40.617 75.4466V75.805H37.8858L37.2976 74.5531ZM35.4008 69.9222L34.3612 72.3533H36.4586L35.4008 69.9222Z" fill="#1F1F1F"/>
<path d="M44.9303 75.7914H42.2858V65.7221H46.7542C47.9032 65.7221 48.7969 66.0986 49.4443 66.8515C50.0918 67.6044 50.4019 68.4889 50.3836 69.5049C50.3836 70.5028 50.0645 71.3645 49.4216 72.0948C48.7786 72.825 47.8895 73.1879 46.7542 73.1879H44.9303V75.7914ZM44.8893 70.9019H46.7542C47.0825 70.9019 47.3469 70.7567 47.5475 70.4619C47.7482 70.1716 47.853 69.8269 47.853 69.4323C47.853 69.0513 47.7573 68.7157 47.5658 68.4345C47.3743 68.1533 47.1053 68.0081 46.7542 68.0081H44.8893V70.9019Z" fill="#1F1F1F"/>
<path d="M57.8431 74.5531H54.0541L53.475 75.805H50.7119V75.4466L55.3536 65.636H56.5664L61.1625 75.4466V75.805H58.4313L57.8431 74.5531ZM55.9509 69.9222L54.9113 72.3533H57.0087L55.9509 69.9222Z" fill="#1F1F1F"/>
<path d="M66.9989 65.7357H75.4159V75.805H72.7714V68.1079H69.648V75.805H67.0035V65.7357H66.9989Z" fill="#1F1F1F"/>
<path d="M80.965 75.7914H78.3204V65.7221H82.7888C83.9379 65.7221 84.8315 66.0986 85.479 66.8515C86.1265 67.6044 86.4365 68.4889 86.4183 69.5049C86.4183 70.5028 86.0991 71.3645 85.4562 72.0948C84.8133 72.825 83.9242 73.1879 82.7888 73.1879H80.965V75.7914ZM80.9194 70.9019H82.7843C83.1126 70.9019 83.377 70.7567 83.5777 70.4619C83.7783 70.1716 83.8831 69.8269 83.8831 69.4323C83.8831 69.0513 83.7874 68.7157 83.5959 68.4345C83.4044 68.1533 83.1354 68.0081 82.7843 68.0081H80.9194V70.9019Z" fill="#1F1F1F"/>
<path d="M94.6438 70.6116L89.3228 75.8322H88.5431V65.7357H91.1877V70.657L96.4631 65.6949H97.2884V75.805H94.6438V70.6116Z" fill="#1F1F1F"/>
<path d="M103.827 68.0807L103.435 72.698C103.348 73.6777 103.166 74.3989 102.892 74.8706C102.619 75.3423 102.19 75.6462 101.606 75.7823C101.023 75.9229 100.252 75.9093 99.2992 75.746L99.3448 73.8592C99.9056 73.909 100.27 73.8501 100.453 73.6868C100.631 73.5235 100.749 73.1652 100.808 72.6073L101.52 65.7312H108.665V75.8004H106.034V68.0762H103.827V68.0807Z" fill="#1F1F1F"/>
<path d="M117.866 65.7357V68.0217H114.191V69.4595H117.574V71.7591H114.191V73.4011H117.994V75.805H111.546V65.7357H117.866Z" fill="#1F1F1F"/>
<path d="M120.538 65.7357H128.955V75.805H126.31V68.1079H123.187V75.805H120.542V65.7357H120.538Z" fill="#1F1F1F"/>
<path d="M137.946 70.6116L132.625 75.8322H131.846V65.7357H134.49V70.657L139.766 65.6949H140.591V75.805H137.946V70.6116Z" fill="#1F1F1F"/>
<path d="M151.917 75.805H149.272V71.7773H146.135V75.805H143.491V65.7357H146.135V69.3734H149.272V65.7357H151.917V75.805Z" fill="#1F1F1F"/>
<path d="M160.681 74.5531H156.892L156.312 75.805H153.549V75.4466L158.191 65.636H159.404L164 75.4466V75.805H161.269L160.681 74.5531ZM158.784 69.9222L157.744 72.3533H159.842L158.784 69.9222Z" fill="#1F1F1F"/>
<path d="M2.73577 4.82598V6.01433H4.42739C5.49433 6.01433 6.3105 6.2774 6.87134 6.80807C7.43673 7.33875 7.71487 8.02364 7.71487 8.86728C7.71487 9.71999 7.42761 10.4321 6.85766 11.0081C6.28315 11.5842 5.4761 11.8699 4.42739 11.8699H0.387573V2.73956H6.98077V4.82598H2.73577ZM4.41371 7.99642H2.73577V9.78348H4.41371C4.7192 9.78348 4.9563 9.69277 5.12956 9.51588C5.29827 9.33899 5.38491 9.1258 5.38491 8.88541C5.38491 8.63141 5.29827 8.42277 5.12956 8.25042C4.96086 8.07806 4.72376 7.99642 4.41371 7.99642Z" fill="#1F1F1F"/>
<path d="M13.0815 4.8668L12.7258 9.05324C12.6483 9.94224 12.4842 10.5954 12.2334 11.0217C11.9826 11.4481 11.595 11.7248 11.0661 11.8518C10.5372 11.9788 9.83959 11.9651 8.97327 11.82L9.0143 10.1101C9.52042 10.1554 9.85327 10.101 10.0174 9.9513C10.177 9.80162 10.2864 9.47959 10.3366 8.97159L10.9795 2.73956H17.4541V11.8699H15.0695V4.8668H13.0815Z" fill="#1F1F1F"/>
<path d="M25.4062 10.736H21.9728L21.4484 11.8699H18.9452V11.5433L23.1537 2.64884H24.2571L28.4246 11.5433V11.8699H25.9487L25.4062 10.736ZM23.6872 6.53593L22.7433 8.74028H24.6447L23.6872 6.53593Z" fill="#1F1F1F"/>
<path d="M35.6334 4.82598H32.3048V11.8699H29.9202V2.73956H35.6379V4.82598H35.6334Z" fill="#1F1F1F"/>
<path d="M46.239 7.30246C46.239 8.69492 45.8012 9.82885 44.9212 10.7133C44.0412 11.5978 42.9104 12.0377 41.5198 12.0377C40.8996 12.0377 40.3115 11.9379 39.7552 11.7384C39.1989 11.5388 38.7019 11.2485 38.2596 10.863C37.8174 10.482 37.4663 9.98305 37.2109 9.37073C36.9556 8.75842 36.8234 8.06899 36.8234 7.30246C36.8234 6.29554 37.0559 5.42468 37.5164 4.6899C37.9815 3.95512 38.5651 3.41538 39.2673 3.07067C39.9695 2.72596 40.7355 2.55359 41.5562 2.55359C42.149 2.55359 42.7235 2.65791 43.2798 2.86202C43.836 3.06612 44.333 3.36094 44.7753 3.74194C45.2176 4.12294 45.5687 4.62187 45.8377 5.23419C46.1022 5.85104 46.239 6.54047 46.239 7.30246ZM39.2217 7.30246C39.2217 8.07806 39.4497 8.68131 39.9011 9.12128C40.3571 9.56124 40.8997 9.77894 41.5289 9.77894C42.149 9.77894 42.6916 9.56124 43.1475 9.12128C43.6081 8.68131 43.836 8.07806 43.836 7.30246C43.836 6.52686 43.6081 5.92361 43.1521 5.48365C42.6961 5.04368 42.1627 4.82598 41.5517 4.82598C40.9042 4.82598 40.3525 5.03915 39.9011 5.47004C39.4497 5.90093 39.2217 6.51325 39.2217 7.30246Z" fill="#1F1F1F"/>
<path d="M49.7499 4.82598H47.4929V2.73956H54.3095V4.82598H52.0662V11.8699H49.7454V4.82598H49.7499Z" fill="#1F1F1F"/>
<path d="M63.1643 5.50633C63.1643 5.79208 63.0959 6.08237 62.9546 6.37265C62.8132 6.66294 62.6308 6.8988 62.4028 7.08476C62.7722 7.26619 63.0503 7.53379 63.2464 7.8785C63.4424 8.22775 63.5427 8.61328 63.5427 9.03964C63.5427 9.84699 63.2874 10.5137 62.7767 11.0353C62.266 11.5569 61.5502 11.82 60.6337 11.82H56.2155V2.70328H60.2689C61.1261 2.70328 61.8238 2.96181 62.3618 3.47434C62.8953 3.98234 63.1643 4.6627 63.1643 5.50633ZM60.0957 4.77608H58.6138V6.30008H60.0957C60.3145 6.30008 60.4832 6.23205 60.6064 6.09144C60.7295 5.95083 60.7933 5.783 60.8024 5.58343C60.8115 5.36572 60.7523 5.17522 60.6246 5.01647C60.5015 4.85319 60.3237 4.77608 60.0957 4.77608ZM60.4513 8.23229H58.6138V9.74721H60.4604C60.8799 9.74721 61.117 9.51134 61.1672 9.04417C61.1854 8.82645 61.1262 8.63595 60.9894 8.4772C60.8571 8.30938 60.6748 8.23229 60.4513 8.23229Z" fill="#1F1F1F"/>
<path d="M74.6225 7.30246C74.6225 8.69492 74.1848 9.82885 73.3048 10.7133C72.4248 11.5978 71.294 12.0377 69.9033 12.0377C69.2832 12.0377 68.695 11.9379 68.1387 11.7384C67.5825 11.5388 67.0855 11.2485 66.6432 10.863C66.2009 10.482 65.8498 9.98305 65.5945 9.37073C65.3346 8.75842 65.2069 8.06899 65.2069 7.30246C65.2069 6.29554 65.4394 5.42468 65.9 4.6899C66.365 3.95512 66.9487 3.41538 67.6509 3.07067C68.353 2.72596 69.1191 2.55359 69.9398 2.55359C70.5325 2.55359 71.107 2.65791 71.6633 2.86202C72.2196 3.06612 72.7166 3.36094 73.1589 3.74194C73.6011 4.12294 73.9522 4.62187 74.2212 5.23419C74.4903 5.85104 74.6225 6.54047 74.6225 7.30246ZM67.6098 7.30246C67.6098 8.07806 67.8378 8.68131 68.2892 9.12128C68.7452 9.56124 69.2878 9.77894 69.917 9.77894C70.5371 9.77894 71.0797 9.56124 71.5356 9.12128C71.9962 8.68131 72.2241 8.07806 72.2241 7.30246C72.2241 6.52686 71.9962 5.92361 71.5402 5.48365C71.0842 5.04368 70.5508 4.82598 69.9398 4.82598C69.2923 4.82598 68.7406 5.03915 68.2892 5.47004C67.8332 5.90093 67.6098 6.51325 67.6098 7.30246Z" fill="#1F1F1F"/>
<path d="M79.173 11.8563H76.7747V2.72595H80.8282C81.8677 2.72595 82.6793 3.06614 83.2675 3.75102C83.8512 4.43138 84.1384 5.23419 84.1202 6.15493C84.1202 7.05754 83.8284 7.84221 83.2493 8.50442C82.6657 9.16663 81.8632 9.49321 80.8327 9.49321H79.1821V11.8563H79.173ZM79.132 7.42039H80.8236C81.12 7.42039 81.3616 7.28886 81.544 7.02125C81.7264 6.75818 81.8176 6.44522 81.8176 6.0869C81.8176 5.73765 81.7309 5.4383 81.5577 5.17976C81.3844 4.92123 81.1382 4.79423 80.8236 4.79423H79.132V7.42039Z" fill="#1F1F1F"/>
<path d="M91.5751 7.16186L86.7511 11.8971H86.0443V2.73956H88.4427V7.19815L93.2303 2.69874H93.978V11.8654H91.5797V7.16186H91.5751Z" fill="#1F1F1F"/>
<path d="M98.1137 4.82598H95.8567V2.73956H102.673V4.82598H100.43V11.8699H98.1091V4.82598H98.1137Z" fill="#1F1F1F"/>
<path d="M110.292 2.73956V4.81237H106.964V6.11865H110.032V8.20506H106.964V9.69278H110.411V11.8699H104.561V2.73956H110.292Z" fill="#1F1F1F"/>
<path d="M116.024 4.8668L115.668 9.05324C115.591 9.94224 115.427 10.5954 115.176 11.0217C114.925 11.4481 114.537 11.7248 114.009 11.8518C113.48 11.9788 112.782 11.9651 111.916 11.82L111.957 10.1101C112.463 10.1554 112.796 10.101 112.96 9.9513C113.124 9.80162 113.229 9.47959 113.284 8.97159L113.926 2.73956H120.401V11.8699H118.016V4.8668H116.024Z" fill="#1F1F1F"/>
<path d="M125.357 2.73956V5.46551H127.049C127.523 5.46551 127.952 5.53808 128.348 5.67869C128.741 5.82383 129.069 6.01886 129.324 6.26378C129.584 6.51325 129.798 6.79446 129.981 7.1165C130.159 7.43853 130.268 7.77418 130.309 8.12796C130.35 8.48174 130.35 8.83099 130.309 9.18477C130.268 9.53855 130.163 9.8742 129.981 10.1962C129.803 10.5183 129.584 10.804 129.324 11.0489C129.064 11.2984 128.741 11.4934 128.348 11.6431C127.956 11.7928 127.523 11.8654 127.049 11.8654H123.023V2.73502H125.357V2.73956ZM127.049 7.56554H125.357V9.76988C125.48 9.76988 125.654 9.76988 125.882 9.77442C126.11 9.77895 126.319 9.77894 126.511 9.77894C126.702 9.77894 126.88 9.77441 127.049 9.76534C127.304 9.76534 127.519 9.68823 127.692 9.53855C127.865 9.38888 127.97 9.20291 128.006 8.9852C128.038 8.76749 128.038 8.55432 127.993 8.34114C127.947 8.12796 127.842 7.94654 127.669 7.79232C127.5 7.64265 127.295 7.56554 127.049 7.56554Z" fill="#1F1F1F"/>
<path d="M139.898 11.8699H137.5V8.21868H134.654V11.8699H132.256V2.73956H134.654V6.04154H137.5V2.73956H139.898V11.8699Z" fill="#1F1F1F"/>
<path d="M144.854 2.73956V5.46551H146.546C147.02 5.46551 147.449 5.53808 147.845 5.67869C148.237 5.82383 148.566 6.01886 148.821 6.26378C149.081 6.51325 149.295 6.79446 149.478 7.1165C149.655 7.43853 149.765 7.77418 149.806 8.12796C149.847 8.48174 149.847 8.83099 149.806 9.18477C149.765 9.53855 149.66 9.8742 149.478 10.1962C149.3 10.5183 149.081 10.804 148.821 11.0489C148.561 11.2984 148.237 11.4934 147.845 11.6431C147.453 11.7928 147.02 11.8654 146.546 11.8654H142.52V2.73502H144.854V2.73956ZM146.546 7.56554H144.854V9.76988C144.977 9.76988 145.151 9.76988 145.379 9.77442C145.607 9.77895 145.816 9.77894 146.008 9.77894C146.199 9.77894 146.377 9.77441 146.546 9.76534C146.801 9.76534 147.015 9.68823 147.189 9.53855C147.362 9.38888 147.467 9.20291 147.503 8.9852C147.535 8.76749 147.535 8.55432 147.49 8.34114C147.444 8.12796 147.339 7.94654 147.166 7.79232C146.997 7.64265 146.787 7.56554 146.546 7.56554ZM153.44 2.73956V11.8699H151.055V2.73956H153.44Z" fill="#1F1F1F"/>
<path d="M156.062 11.8926V2.73502H158.46V7.19361L163.248 2.6942H163.995V11.8608H161.597V7.15279L156.773 11.8881H156.062V11.8926ZM158.829 1.71449C159.203 2.07734 159.732 2.25424 160.416 2.25424C161.114 2.25424 161.652 2.07281 162.021 1.71449C162.391 1.35617 162.591 0.825499 162.618 0.131539C162.03 0.0635035 161.602 0.0181428 161.319 0C161.251 0.46264 160.941 0.689434 160.389 0.689434C159.846 0.689434 159.564 0.458105 159.536 0L158.237 0.131539C158.255 0.825499 158.451 1.35617 158.829 1.71449Z" fill="#1F1F1F"/>
<path d="M16.2641 55.5713V52.2693C11.6452 52.1105 7.84705 50.8723 4.86507 48.5636C1.88309 46.2504 0.39209 42.9575 0.39209 38.6849C0.39209 34.4123 1.87397 31.1103 4.84227 28.779C7.80602 26.4521 11.5996 25.1912 16.2185 25.0007V21.8439H24.444V25.0007C29.2225 25.1912 33.0526 26.4068 35.9388 28.6383C38.825 30.8699 40.2659 34.2218 40.2659 38.6849C40.2659 41.7147 39.5272 44.2593 38.0545 46.3185C36.5771 48.3777 34.694 49.8608 32.4005 50.768C30.1071 51.6751 27.4397 52.1786 24.3893 52.2738V55.5758H16.2641V55.5713ZM9.19213 38.6804C9.19213 42.5085 11.5814 44.5813 16.3598 44.8988V32.5073C11.5814 32.6978 9.19213 34.757 9.19213 38.6804ZM31.4658 38.6804C31.4658 34.757 29.0766 32.6978 24.2981 32.5073V44.8988C29.0766 44.5813 31.4658 42.5085 31.4658 38.6804Z" fill="#1F1F1F"/>
<path d="M79.4283 38.7303C79.4283 43.8329 77.8188 48.0057 74.5951 51.2442C71.3715 54.4827 67.2131 56.1019 62.1109 56.1019C59.8357 56.1019 57.679 55.7345 55.6408 54.9998C53.6027 54.265 51.7743 53.1991 50.1556 51.793C48.537 50.3915 47.2512 48.5636 46.3073 46.3139C45.3635 44.0642 44.8893 41.5378 44.8893 38.7303C44.8893 35.0291 45.7374 31.8315 47.4381 29.1373C49.1388 26.4431 51.2773 24.4655 53.858 23.2046C56.4388 21.9437 59.2384 21.3132 62.2523 21.3132C64.4318 21.3132 66.5429 21.6897 68.5764 22.4381C70.6146 23.1864 72.4384 24.2659 74.0616 25.6675C75.6803 27.0735 76.9798 28.8969 77.9601 31.1466C78.9404 33.3917 79.4283 35.9227 79.4283 38.7303ZM53.6939 38.7303C53.6939 41.5696 54.5283 43.7966 56.1926 45.4068C57.8614 47.017 59.8494 47.8243 62.1565 47.8243C64.4318 47.8243 66.4152 47.017 68.0977 45.4068C69.7802 43.7966 70.6237 41.5696 70.6237 38.7303C70.6237 35.8909 69.7893 33.6684 68.1205 32.0537C66.4517 30.4435 64.4956 29.6362 62.2523 29.6362C59.8813 29.6362 57.8568 30.4254 56.1926 32.0038C54.5283 33.5868 53.6939 35.8274 53.6939 38.7303Z" fill="#1F1F1F"/>
<path d="M130.095 48.0602H131.344C132.593 48.0284 133.446 47.72 133.893 47.1258C134.34 46.5362 134.663 45.4249 134.855 43.8012L137.404 21.98H160.635V48.0556H164V59.3949H156.882V55.4715H136.774V59.3949H130.09V48.0602H130.095ZM145.05 29.4956L143.514 44.0914C143.354 46.1643 142.839 47.5522 141.972 48.2552H151.88V29.4956H145.05Z" fill="#1F1F1F"/>
<path d="M92.1359 44.3364L104.16 33.0742H92.1359V21.98H84.0518V55.476H92.1359V44.3364Z" fill="#ED1C24"/>
<path d="M117.387 21.98V32.6706V33.0742L105.363 44.3364H117.387V55.476H125.467V21.98H117.387Z" fill="#ED1C24"/>
</svg>
